<?xml version="1.0" encoding="UTF-8"?>
<svg id="Capa_1" data-name="Capa 1" xmlns="http://www.w3.org/2000/svg" viewBox="0 0 32 32">
  <defs>
    <style>
      .cls-1 {
        fill: #a45037;
        stroke-width: 0px;
      }
    </style>
  </defs>
  <path class="cls-1" d="m.32,17.3c0-.86,0-1.71,0-2.57.07-.5.13-1.01.22-1.51C2.06,4.83,9.99-.9,18.61.54c8.47,1.41,14.27,9.39,12.85,17.9-1.07,6.44-4.91,10.64-11.11,12.66-1,.33-2.04.46-3.09.59h-2.57c-.49-.07-.99-.12-1.48-.22-6.23-1.31-10.33-5-12.31-11.05-.33-1.01-.47-2.06-.6-3.11Zm7.86-1.32c0,.88,0,1.75,0,2.63,0,.47,0,.94.1,1.4.45,2.26,2.31,3.79,4.63,3.81,2.05.01,4.1,0,6.15,0,.3,0,.61-.03.91-.09,2.29-.44,3.82-2.31,3.83-4.67,0-2.03,0-4.06,0-6.09,0-.31-.03-.63-.09-.94-.44-2.26-2.3-3.81-4.62-3.82-2.06-.01-4.12,0-6.18,0-.3,0-.61.03-.91.09-2.27.45-3.79,2.3-3.81,4.63,0,1.02,0,2.04,0,3.06Z"/>
  <path class="cls-1" d="m22.29,16.26c-.03.94.06,2.11-.04,3.28-.12,1.4-1.34,2.61-2.74,2.74-.87.08-1.73.04-2.6.04-1.48,0-2.96.07-4.43-.04-1.42-.11-2.65-1.33-2.75-2.75-.11-1.59-.03-3.18-.04-4.77,0-.76-.04-1.53.04-2.29.13-1.38,1.37-2.64,2.74-2.7,2.22-.11,4.44-.03,6.67-.04.21,0,.43.03.64.07,1.53.31,2.51,1.57,2.53,3.24.01,1,0,2,0,3.23Zm-10.33-.24c0,2.2,1.81,4.01,4.02,4.01,2.2,0,4.02-1.81,4.02-4.01,0-2.22-1.81-4.03-4.03-4.03-2.2,0-4,1.81-4,4.02Zm9.04-4.07c0-.55-.4-.94-.95-.94-.55,0-.94.4-.94.95,0,.55.44.98.96.97.52-.01.93-.44.93-.98Z"/>
  <path class="cls-1" d="m18.51,16.02c0,1.36-1.15,2.52-2.52,2.52-1.36,0-2.52-1.15-2.52-2.52,0-1.36,1.15-2.52,2.52-2.52,1.36,0,2.52,1.15,2.52,2.52Z"/>
</svg>