<?xml version="1.0" encoding="UTF-8"?>
<svg id="Capa_1" data-name="Capa 1" xmlns="http://www.w3.org/2000/svg" viewBox="0 0 32 32">
  <defs>
    <style>
      .cls-1 {
        fill: #956852;
        stroke-width: 0px;
      }
    </style>
  </defs>
  <path class="cls-1" d="m14.65.15h2.72c.63.1,1.27.15,1.89.3,6.18,1.51,10.21,5.3,12.06,11.39.28.93.4,1.89.52,2.85v2.6c-.01.07-.03.14-.04.21-.21,2.28-.91,4.41-2.04,6.39-3.4,5.96-10.38,9.07-17.07,7.62C4.3,29.67-1.1,21.6.41,13.13,1.46,7.19,6,2.24,11.84.67c.93-.25,1.87-.39,2.82-.52Zm1.36,9.4c-2.41,0-4.82.03-7.23-.01-1.28-.02-1.99,1.04-1.98,1.98.03,2.97.03,5.94,0,8.9,0,.93.69,1.99,1.98,1.99,4.82-.03,9.65-.03,14.47,0,1.28,0,1.98-1.05,1.98-1.99-.03-2.97-.01-5.94-.01-8.9,0-.16,0-.33-.04-.49-.2-.92-.9-1.48-1.86-1.48-2.43,0-4.86,0-7.3,0Z"/>
  <path class="cls-1" d="m16.02,10.95c2.02,0,4.04,0,6.06,0,.09,0,.19,0,.28,0,.05,0,.11.02.14.05.05.06-.02.12-.06.15-.21.19-.43.39-.64.58-1.8,1.6-3.61,3.2-5.41,4.79-.35.31-.36.32-.7.01-1.99-1.76-3.98-3.52-5.97-5.29-.07-.07-.21-.13-.17-.23.05-.13.2-.07.3-.07,2.06,0,4.12,0,6.18,0Z"/>
  <path class="cls-1" d="m15.98,21.01c-1.99,0-3.98,0-5.96,0-.1,0-.24.05-.28-.06-.05-.12.1-.16.18-.22,1.4-1.09,2.8-2.18,4.19-3.27.19-.15.32-.16.5.01.29.28.59.54.9.8.36.3.66.3,1.03,0,.31-.26.61-.52.9-.8.16-.15.29-.18.48-.03,1.4,1.1,2.81,2.19,4.21,3.29.07.06.22.11.17.22-.04.1-.19.05-.28.05-2.01,0-4.02,0-6.03,0Z"/>
  <path class="cls-1" d="m8.21,16.02c0-1.26,0-2.51,0-3.77,0-.1-.04-.23.07-.28.11-.06.18.06.26.13,1.48,1.31,2.96,2.62,4.44,3.94.31.27.31.28-.03.54-1.46,1.14-2.92,2.28-4.39,3.42-.08.06-.16.2-.29.12-.1-.06-.06-.19-.06-.29,0-1.27,0-2.53,0-3.8Z"/>
  <path class="cls-1" d="m23.82,16.04c0,1.26,0,2.51,0,3.77,0,.11.05.25-.08.31-.11.05-.18-.07-.26-.13-1.49-1.16-2.97-2.32-4.46-3.47-.22-.17-.21-.27-.01-.44,1.51-1.33,3.01-2.66,4.51-3.99.07-.06.13-.16.23-.12.11.05.07.18.07.28,0,1.27,0,2.53,0,3.8Z"/>
</svg>