<?xml version="1.0" encoding="UTF-8"?>
<svg id="Capa_1" data-name="Capa 1" xmlns="http://www.w3.org/2000/svg" viewBox="0 0 100 147">
  <defs>
    <style>
      .cls-1 {
        fill: #fff;
        opacity: .11;
        stroke-width: 0px;
      }
    </style>
  </defs>
  <path class="cls-1" d="M98.37,75.98c-.05-10.64.57-21.29-.53-31.92C95.47,21.3,75.22,2.21,52.59,1.42,24.38.43,1.76,22.16,1.59,50.5c-.09,14.7-.02,29.39-.02,44.09,0,15.37.08,30.74-.07,46.11-.03,3.1.69,4.15,4,4.13,29.66-.13,59.32-.14,88.98,0,3.35.02,3.99-1.08,3.98-4.14-.11-21.57.02-43.14-.09-64.72ZM88.6,25.24c5.21,8.84,7.57,18.27,7.24,28.16-7.84-7.41-15.67-14.79-23.47-22.2-1.76-1.67-3.31-3.56-5.1-5.19-1.54-1.41-2.29-2.82-1.53-4.96.8-2.27,2.6-1.48,4.07-1.53,2.69-.1,5.45.33,8.08-.09,5.22-.83,8.2,1.57,10.7,5.82ZM80.66,56.71c-3.91,3.07-8.04,5.86-12.15,8.66-3.98,2.71-8,5.37-12.01,9.12.97-12.87,8.69-21.13,21.5-23.46,2.26-.41,5.77-2.11,6.68-.19,1.08,2.27-2.08,4.35-4.02,5.87ZM84.83,56.18c-.98,15.38-14.88,26.56-29.16,23.98,7.25-10.96,20.14-14.45,29.16-23.98ZM82,17.03c-5.39,0-9.54-.01-13.69,0-1.13,0-2.3,0-2.54-1.38-.65-3.82-2.78-6.86-5.66-10.45,8.62,1.81,15.11,5.7,21.88,11.82ZM59.88,9.1c4.98,5.41,4.75,13.99-.38,19.02-1.43,1.4-2.18,1.43-3.3-.33-1.95-3.05-4.15-5.93-6.57-9.34-2.21,3.07-4.32,5.67-6.05,8.49-1.25,2.04-2.12,2.39-3.8.45-4.92-5.67-4.41-14.01,1.31-19.28,5.49-5.07,13.62-4.64,18.8.99ZM44.9,33.68c3.2,1.29,6.55,1.28,9.85.17.88-.3,1.82-.85,2.43.35,2.02,3.93,4.43,7.76,2.24,12.49-1.93,4.18-5.12,6.39-8.89,6.66-8.18.07-13.45-7.35-10.87-14.21.52-1.38,1.24-2.68,1.82-4.03.68-1.6,1.54-2.19,3.41-1.44ZM45.25,28.75c1.31-1.84,2.61-3.69,4.28-6.05,1.31,1.79,2.46,3.11,3.31,4.6.68,1.18,2.6,2.22,1.58,3.71-.79,1.15-2.64,1.16-4.11,1.1-1.32-.06-2.64-.31-3.94-.55-1.78-.34-2.2-1.28-1.12-2.8ZM40.68,4.74c-3.64,3.57-5.75,6.91-6.58,10.92-.24,1.18-1.11,1.37-2.12,1.37-4.26,0-8.53,0-13.77,0,6.53-6.45,13.49-9.99,22.48-12.29ZM14.32,21.26c.59-.74,1.19-1.63,2.19-1.64,5.38-.07,10.77-.23,16.14.02,2.09.1,2.42,3.51.53,5.45-6.39,6.56-12.8,13.09-19.26,19.57-3.03,3.04-6.21,5.93-9.81,9.33-.3-12.42,2.72-23.26,10.21-32.73ZM32.24,142.29c-8.49-.04-16.99-.07-25.48.02-2.58.03-2.73-1.44-2.72-3.39.03-14.15.02-28.31.02-42.46,5.93,11.78,15.85,16.48,28.32,17,1.75.07,2.26.97,2.25,2.6-.04,7.95-.04,15.91,0,23.87,0,1.73-.66,2.39-2.39,2.38ZM4.53,81.2c14.69-2.32,28.94,9.42,29.09,23.82-8.74-9.25-21.6-12.88-29.09-23.82ZM33.36,110.07c-1.23,2.55-5.34.51-8.05-.1-11.87-2.63-18.02-9.69-20.26-23.64,7.36,7.25,16.01,11.28,23.28,17.21,2.23,1.82,6.16,4.19,5.04,6.53ZM40.58,142.37c-2.91.03-3.6-.99-3.56-3.74.14-9.7.14-19.4-.01-29.1-.29-18.87-10.65-29.9-29.4-31.25-2.8-.2-3.82-1.02-3.6-3.82.22-2.81.06-5.65.05-8.48q0-8.82,7.8-15.06c.48,6.38,1.37,12.23,4.18,17.56,5.27,10,14.4,13.7,24.94,14.67,2.74.25,3.64.95,3.63,3.77-.12,17.24-.15,34.49,0,51.73.03,3.25-1.23,3.7-4.03,3.73ZM36.76,71.96c2.49,1.86,4.86,3.85,6.62,6.43.64.94,1.56,2.13-.8,2.4-13.12,1.49-26.53-10.18-27.2-24.34,6.82,6.35,14.51,10.36,21.38,15.51ZM15.66,51.15c1.19-2.47,5.56-.38,8.38.29,11.86,2.82,18.34,10.32,19.83,23.26-7.29-6.89-15.72-10.97-22.9-16.77-2.34-1.89-6.49-4.33-5.31-6.77ZM53.13,112.93c0,8.63-.04,17.27.03,25.9.02,2.16-.17,3.56-2.96,3.52-2.57-.03-3.2-1.03-3.19-3.38.06-17.54.06-35.07,0-52.61,0-2.25.73-3.04,3.03-3.09,2.59-.05,3.17.99,3.14,3.35-.11,8.77-.04,17.53-.04,26.3ZM49.99,80.95c-3.13-.04-3-1.75-3.13-3.87-1.12-17.28-10.94-27.47-28.13-29.27-1.03-.11-2.06-.18-4-.35,7.01-7.14,13.48-13.73,19.95-20.31.44-.45.78-.92,1.63-.36,2.66,1.74,3.76,5.38,2.37,8.35-4.86,10.43.25,20.26,10.56,20.75,8.22.39,17.64-9.08,11.64-19.67-1.85-3.27-1.26-4.94,1.12-7.43,1.95-2.04,2.73-1.86,4.54-.07,6,5.97,12.18,11.76,18.3,17.62-.26.39-.51.79-.77,1.18-1.59.22-3.19.41-4.77.67-16.2,2.68-24.93,12.29-26,28.68-.15,2.25.05,4.13-3.31,4.09ZM93.25,142.29c-8.35-.05-16.71-.04-25.06,0-1.86,0-2.66-.71-2.64-2.63.06-7.81.11-15.63,0-23.44-.04-2.95,1.84-2.69,3.75-2.84,9.22-.74,17.38-3.67,23.03-11.52,1.13-1.57,2.01-3.32,3.58-5.96,0,15.36-.01,29.57.02,43.79,0,1.89-.78,2.61-2.67,2.6ZM67.19,108.37c1.7-2.48,4.02-4.34,6.39-6.13,6.96-5.26,14.92-9.12,21.42-15.72-1.76,17.65-13.69,23.55-26.61,24.46-2.73.19-2.2-1.13-1.19-2.61ZM66.67,104.95c-.24-13.95,13.52-25.4,29.16-23.9-7.69,11.14-20.48,14.78-29.16,23.9ZM95.54,76.56c-1.69,3.62-6.73,1.67-10.22,2.62-13.99,3.79-21.9,14.36-22.19,30.86-.17,9.43-.13,18.86.01,28.29.04,2.8-.42,4.14-3.69,4.06-2.92-.07-3.96-.7-3.93-3.83.15-17.24.08-34.49.09-51.73,0-1.73-.36-3.43,2.42-3.61,17.87-1.12,28.6-10.23,30.35-31.76,4.82,3.85,8.66,7.36,7.61,13.94-.59,3.68.99,8.05-.46,11.16Z"/>
</svg>