<?xml version="1.0" encoding="UTF-8"?>
<svg id="Capa_1" data-name="Capa 1" xmlns="http://www.w3.org/2000/svg" viewBox="0 0 32 32">
  <defs>
    <style>
      .cls-1 {
        fill: #175754;
        stroke-width: 0px;
      }
    </style>
  </defs>
  <path class="cls-1" d="m31.5,14.73v2.54c-.08.53-.12,1.06-.23,1.58-1.36,6.19-5.08,10.23-11.12,12.12-.94.29-1.91.42-2.88.53h-2.54c-.51-.07-1.02-.12-1.52-.22-6.22-1.34-10.27-5.06-12.18-11.13-.29-.92-.4-1.87-.53-2.82,0-.89,0-1.78,0-2.66.07-.49.13-.98.22-1.46C1.75,7.38,6.2,2.54,11.91,1.01c.91-.24,1.83-.38,2.76-.51h2.66c.61.1,1.22.14,1.82.28,6.06,1.46,10.01,5.17,11.83,11.12.28.92.4,1.87.51,2.82Zm-5.95.91c.03-.48-.04-1.06-.15-1.64-.95-4.91-5.58-8.15-10.52-7.38-6.23.98-9.68,7.87-6.72,13.43.12.23.14.44.07.69-.37,1.33-.73,2.66-1.1,3.99-.1.37-.09.39.29.29,1.38-.36,2.77-.72,4.15-1.09.23-.06.42-.03.63.07,1.78.88,3.66,1.18,5.62.85,4.65-.77,7.78-4.82,7.73-9.22Z"/>
  <path class="cls-1" d="m16.43,23.49c-1.52,0-2.83-.36-4.03-1.07-.21-.12-.4-.14-.63-.07-.71.2-1.42.38-2.13.57-.47.12-.48.11-.35-.37.19-.68.37-1.36.57-2.04.07-.24.04-.43-.09-.65-.92-1.46-1.32-3.06-1.14-4.77.3-2.86,1.75-5,4.33-6.28,4.68-2.33,10.35.69,11.06,5.86.58,4.28-2.35,8.15-6.63,8.77-.35.05-.7.03-.94.07Zm2.33-3.33c.09,0,.18,0,.27,0,1.02-.06,1.81-.77,1.96-1.76.04-.25.01-.46-.25-.58-.58-.27-1.15-.55-1.72-.82-.24-.12-.44-.07-.6.16-.2.27-.42.52-.63.78-.14.18-.32.23-.54.14-1.37-.54-2.42-1.46-3.18-2.72-.12-.2-.1-.37.04-.55.15-.19.29-.39.44-.58.18-.23.21-.46.09-.73-.21-.47-.4-.95-.6-1.42-.25-.6-1.04-.78-1.53-.34-.41.37-.69.81-.8,1.36-.17.78,0,1.51.38,2.18.96,1.68,2.22,3.1,3.94,4.04.84.46,1.73.82,2.71.86Z"/>
</svg>