<?xml version="1.0" encoding="UTF-8"?>
<svg id="Capa_1" data-name="Capa 1" xmlns="http://www.w3.org/2000/svg" viewBox="0 0 20 20">
  <defs>
    <style>
      .cls-1 {
        fill: #956852;
        stroke-width: 0px;
      }
    </style>
  </defs>
  <path class="cls-1" d="m16.66,9.76c-2.46-.01-4.24,1.44-4.67,3.87-.29,1.62-.08,3.25-.16,4.87-.02.32.18.82-.43.82-.6,0-.44-.49-.44-.82-.01-2.29.02-4.58-.03-6.87-.01-.7.3-.85.89-.95,2.65-.42,3.9-1.88,4.07-4.57.05-.75-.25-.87-.89-.85-2.52.08-4.13,1.47-4.56,3.98-.06.33.09.89-.4.9-.6.02-.4-.59-.46-.94-.38-2.44-2.23-3.98-4.72-3.94-.59,0-.77.2-.75.78.1,2.69,1.43,4.25,4.11,4.64.73.11.88.42.87,1.08-.03,2.22,0,4.43-.02,6.65,0,.35.21.92-.46.91-.66-.01-.43-.58-.44-.93-.04-1.59.1-3.18-.15-4.76-.43-2.79-2.49-3.77-4.78-3.86-.41-.01-.58.12-.62.55-.2,1.86.98,3.83,2.68,4.57.72.32,1.84-.04,2.16.76.29.74.07,1.67.08,2.52,0,.33.04.67,0,1-.1.91.52.78,1.07.78.56,0,1.11.11,1.06-.8-.07-1.25-.02-2.51-.02-3.77,0-1.18-.02-2.37.01-3.55,0-.35-.24-.97.36-.97.49,0,.29.59.29.92.02,2.4.05,4.8,0,7.21-.02.94.42.98,1.14.98.7,0,1.12-.08,1.04-.94-.07-.88.03-1.78-.03-2.66-.06-.77.18-1.06.98-1.19,2.6-.43,3.97-2.13,3.96-4.66,0-.56-.14-.77-.75-.77Zm-1.44-3.83c-1.19,1.38-2.73,1.98-3.97,3.04.18-1.89,1.51-2.94,3.97-3.04Zm-.23,1.16c-.17,1.9-1.75,3.11-3.94,2.99,1.14-1.33,2.66-1.95,3.94-2.99Zm-6.16,1.93c-1.37-1.14-2.87-1.73-3.94-3.01,2.08-.15,3.45.85,3.94,3.01Zm-3.85-1.97c1.35,1.04,2.79,1.72,4.07,3.06-2.34,0-3.65-1.01-4.07-3.06Zm2.32,6.46c-1.32-1.06-2.82-1.69-3.97-2.99,2.16-.14,3.57.93,3.97,2.99Zm-3.91-2.01c1.34,1.12,2.85,1.72,3.93,2.96-1.76.45-3.35-.7-3.93-2.96Zm9.2,3.1c1.17-1.36,2.67-1.96,3.89-2.98-.08,1.81-1.62,3.05-3.89,2.98Zm.12-1.05c.43-2.1,1.71-3.08,4.01-3.09-1.13,1.36-2.66,1.95-4.01,3.09Z"/>
  <path class="cls-1" d="m11.91,3.99c-.34-1.02-1-1.87-1.63-2.72-.3-.4-.49-.31-.72.03-.57.81-1.18,1.59-1.55,2.53-.55,1.43.38,2.82,1.89,2.85,1.46.03,2.47-1.3,2.01-2.69Zm-1.99,2.08c-.88-.01-1.56-.73-1.44-1.57.12-.9.73-1.58,1.21-2.31.11-.16.25-.22.45-.07.33.24,1.26,2.06,1.26,2.52,0,.81-.66,1.44-1.49,1.43Z"/>
</svg>