<?xml version="1.0" encoding="UTF-8"?>
<svg id="Capa_1" data-name="Capa 1" xmlns="http://www.w3.org/2000/svg" viewBox="0 0 240 92">
  <defs>
    <style>
      .cls-1 {
        fill: #956852;
        stroke-width: 0px;
      }
    </style>
  </defs>
  <g>
    <path class="cls-1" d="M2.58,59.18c-.17-.35-.35-.69-.52-1.21-.17-.52.17-1.38.86-1.73.35-.35.69-.35,1.55-.17,1.38.17,4.14-.17,10.18-1.21,2.42-.35,5.87-1.04,7.59-1.21l2.93-.52,1.38-2.76c.86-1.38,3.11-6.04,5.35-10.01,6.04-11.74,8.28-15.53,11.74-21.57C49.18,9.48,54.88,1.88,57.47.5c1.21-.69,2.07-.52,2.59.86.17.86,0,4.14-.52,7.59-2.07,12.08-5.01,34.69-5.01,34.69,0,0,.86-.17,1.9-.52,3.8-1.21,5.18-1.38,6.21-.35.35.52.35.86,0,1.38-.35.52-1.04.69-4.83,1.38-1.73.35-3.28.69-3.45.86-.35,0-.35.35-.35,1.55-.17.69-.86,6.39-1.55,12.6-1.9,15.19-2.24,18.81-2.59,23.99-.69,5.87-.86,6.56-1.9,7.25-.52.52-1.55.52-2.07,0-.69-.35-.86-1.21-.86-2.24,0-1.21,0-2.76,1.73-10.87,1.21-6.9,2.24-11.91,2.76-15.88.52-3.45,2.42-15.88,2.42-15.88,0,0-5.52,1.38-10.01,2.76-6.21,1.9-9.49,2.76-12.77,3.45-.69,0-1.38.17-1.55.17-.17.17-.52.52-3.45,7.25-1.9,4.31-3.62,8.11-6.56,15.02-.86,2.24-1.73,4.31-1.9,4.49-.69,1.38-1.73,1.73-2.76,1.38-.69-.35-1.04-.86-1.04-1.9,0-.52.69-1.55,4.14-8.8,2.24-4.49,5.18-10.01,6.39-12.43,1.21-2.42,2.24-4.31,2.24-4.31-.17-.17-3.11.52-10.7,1.9-7.94,1.55-7.59,1.55-7.94,1.9-.69.86-2.24,1.04-2.93.35l-.52,1.04ZM27.61,52.45s.35,0,2.24-.52c3.62-.86,8.11-2.24,13.46-3.97,2.24-.86,8.28-3.11,8.46-3.11s.52-1.55.86-3.45c.17-1.55,1.04-6.39,1.73-10.36,1.04-6.39,1.73-9.32,3.45-19.5.86-4.31,1.04-5.52,1.04-7.42.17-1.9,0-2.76-.35-2.76s-2.42,2.07-3.62,3.62c-5.35,7.25-13.81,21.57-22.44,38.49"/>
    <path class="cls-1" d="M120.64,66.08c.52-.35.86.35,0,1.04-1.9,1.38-14.15,10.01-17.09,12.43-4.14,3.28-6.21,4.66-8.28,5.87-3.11,1.55-5.18,1.73-6.56.35-1.38-1.38-1.73-3.62-.52-7.42,1.21-4.32,3.45-8.8,9.15-18.12,3.62-6.21,5.52-9.49,5.01-9.67,0,0-.17,0-.69.17-2.93,1.21-8.11,5.52-14.15,11.56-2.76,2.76-4.49,4.49-7.77,8.28-3.11,3.8-3.8,4.14-4.49,3.97-.52,0-.69-.52-1.21-1.73-.17-.52-.35-1.21-.52-1.55-.35-.69-1.55-.17-3.11,1.04-1.55,1.04-1.9,1.73-2.24,3.11-1.73,4.66-3.97,8.46-6.04,9.84-1.04.86-2.24.35-2.24-.86,0-.52.52-1.9,2.07-4.14,1.38-2.07,3.28-6.9,3.97-10.36.52-2.76,1.04-6.73.52-7.59v-.17l-.17.17v-1.38c.17-.17.35-.17.35-.17,0-.35,1.04-.69,1.55-.69,1.73,0,2.76,2.07,2.24,5.87,0,1.38-.17,2.76-.69,5.18-.17.17,0,.17.69-.35,1.04-.69,1.9-1.04,2.76-1.04,1.04,0,1.55.69,2.07,2.59.17,1.04.35,1.38.69,1.38.17,0,2.07-1.9,5.7-6.04,6.04-6.9,9.84-10.87,14.15-14.33,2.93-2.59,5.52-4.14,7.08-4.66q.69-.17,1.21.17c.69.35,1.04,1.04,1.04,2.07,0,2.42-1.21,5.18-7.08,16.57-5.35,10.36-7.08,14.33-7.08,16.22,0,.35.17.69.17.69.17.35,1.38.35,2.07,0,2.59-.52,7.59-3.62,13.64-8.11,4.14-2.93,14.33-9.84,14.33-9.84l-.52-.35Z"/>
    <path class="cls-1" d="M156.75,60.35c-1.68.65-3.6,1.41-5.73,2.28-3.11,1.38-8.11,3.45-10.01,4.31-.69.35-1.38.52-1.38.52,0,0,.52-.35.69-1.04,1.04-1.38,1.9-3.28,2.07-4.14.52-1.73,0-3.28-1.04-3.8-1.04-.52-2.76-.69-4.83-.35-4.49,1.04-11.39,4.14-16.57,7.59-.49.37-.9.56-1.02.64.13-.39,1.45-2.88,3.09-5.99,5.49-10.37,9.64-18.32,14.46-27.89.21-.41-.01-.92-.46-1.04,0,0-.01,0-.02,0-.62-.17-1.27.12-1.57.69-.12.24-.24.45-.33.63-2.24,3.97-4.83,8.63-8.8,14.67-1.38,2.42-3.11,5.52-3.8,6.73l-1.38,2.42-1.9,2.93c.17,0-4.66,7.59-6.73,10.36-2.24,3.45-2.42,3.62-2.59,4.31-.35,1.38,1.04,2.93,2.59,2.59,1.21-.17,2.24-1.38,4.14-4.83.69-1.21,1.38-2.24,1.9-2.59.69-.69,3.45-2.76,5.7-4.14,4.49-2.59,11.22-5.35,14.67-5.87,1.73-.35,2.42-.35,3.11.17q.35.69.35,1.21c0,1.55-1.21,4.32-3.62,7.08l-.86,1.04-4.14,2.07c-5.7,2.93-9.67,5.01-13.81,7.42-5.18,3.28-9.49,6.73-10.53,8.28-1.04,1.55,0,2.93,1.9,2.59,1.73-.35,6.21-2.59,9.67-4.83,5.87-3.28,10.7-7.08,14.84-11.39,2.07-1.9,1.55-1.55,6.9-3.97,3.26-1.46,9.67-3.88,14.7-5.67.17-.99.29-1.99.35-3ZM131.51,74.02c-.86.69-3.97,3.11-5.52,4.14h-.17c-3.8,2.76-8.8,5.7-12.6,7.42-.52.17-1.21.52-1.21.52,0,0,1.04-1.04,2.59-2.07,2.76-2.07,6.39-4.49,10.53-6.73,2.76-1.73,6.9-3.8,6.39-3.28Z"/>
    <path class="cls-1" d="M194.18,81.48c-.98-6.95,5.23-17.25,5.66-20.73-.02-.16.04-.34.01-.5-.31-2.21-4.95-1.39-7.19-2.49-.47-.35-.8-.97-.92-1.79-.21-1.47.26-3.46,1.42-5.29.42-.56,1.04-.9,1.7-.99,1.39-.2,2.92.59,3.14,2.14.1.74-.03,1.59-.72,2.6,3,.58,5.92,1.17,6.36,4.27.07.49.14.98.06,1.58-.12,2.69-8.58,14.81-7.59,21.84l.07.49c.42,1.78,1.51,3.04,3.55,3.25.34.04.76.06,1.17,0,9.57-1.35,29.36-29.5,35.23-34,.53-.41,1.06-.73,1.59-1.14.19.14.29.29.38.36-.28.37-.55.83-.94,1.05-9.1,7.62-26.14,33.39-36.44,34.84-.41.06-.74.1-1.07.07-2.77-.11-3.96-1.44-4.78-3.16-.35-.7-.55-1.51-.67-2.41Z"/>
    <path class="cls-1" d="M196.13,56.38c-.49,1.34,1.05,1.45-9.65,7.62-8,4.61-12.58,7.35-14.53,6.5-2.31-1.09-2.73-2.13-1.28-6.38l.85-2.43-2.67,2.19c-3.28,2.67-8.86,6.44-11.54,7.65-2.43,1.21-4.37,1.46-5.59.61-.49-.36-1.09-.97-1.21-1.21-1.34-2.67,3.4-9.23,9.96-14.21,2.31-1.7,3.4-2.19,4.98-2.19,2.31,0,4.37,1.21,6.07,3.4.24.49.36.49.85.12.49-.49,1.09-.61,1.82-.24.73.49.61,1.7-.73,5.22-.61,1.7-1.13,3.56-1.21,4.37-.06.65-.16,1.63.37,1.84.36.14,1.36.2,2.27-.18,4.11-1.3,15.45-8.34,17.53-10.18,1.32-1.03,2.7-1.89,3.3-1.4.36.24.53-1.58.41-1.09ZM167.76,57.43c-1.7-1.21-3.76-.61-7.16,2.19-4.25,3.4-7.89,7.89-7.89,9.71,0,1.21.24,1.21,2.19.61,2.67-.85,13.6-8.14,14.57-9.59.36-.61-.49-2.19-1.7-2.91Z"/>
  </g>
  <g>
    <path class="cls-1" d="M72.62,30.09c1.67-.74,2.51-1.09,4.2-1.76.1.25.15.37.24.61-1.97.78-2.95,1.2-4.9,2.08-1.19-2.63-1.78-3.94-2.97-6.57,2-.9,3.01-1.33,5.04-2.14.1.24.15.37.24.61-1.71.68-2.56,1.04-4.25,1.79.95,2.15,1.43,3.23,2.39,5.38ZM71.19,27.09c1.51-.67,2.26-.99,3.79-1.61.1.24.15.36.24.6-1.52.61-2.27.93-3.77,1.6-.11-.24-.16-.36-.26-.59Z"/>
    <path class="cls-1" d="M80.25,27.73c.61-1.92.93-2.88,1.63-4.8.07.22.11.33.19.56-1.61-1.06-2.43-1.58-4.1-2.6.36-.13.55-.2.91-.33,1.39.85,2.08,1.29,3.43,2.18-.14.05-.21.07-.34.12.55-1.52.84-2.29,1.44-3.81.35-.11.52-.16.86-.27-.72,1.78-1.06,2.68-1.71,4.47-.07-.2-.1-.3-.17-.51,1.7,1.12,2.53,1.7,4.16,2.88-.35.11-.53.16-.88.27-1.39-.99-2.09-1.47-3.53-2.42.13-.04.19-.06.32-.11-.58,1.62-.85,2.43-1.36,4.05-.34.12-.51.18-.86.31Z"/>
    <path class="cls-1" d="M90.2,24.6c-.74-2.79-1.11-4.18-1.85-6.97,1.14-.3,1.72-.45,2.86-.72.65-.16,1.23-.19,1.74-.1.51.09.93.28,1.26.59.33.31.55.71.65,1.22.11.5.07.95-.09,1.36-.17.41-.46.76-.86,1.06-.41.3-.92.52-1.55.67-.93.22-1.39.34-2.32.58.1-.18.15-.26.26-.44.26,1.02.4,1.53.66,2.55-.3.08-.46.12-.76.2ZM90.32,21.91c-.18-.11-.26-.16-.44-.27.92-.24,1.39-.36,2.31-.58.74-.18,1.27-.46,1.59-.85s.42-.87.3-1.42c-.12-.56-.42-.96-.88-1.18-.46-.22-1.08-.24-1.84-.06-.95.23-1.43.35-2.38.6.11-.18.16-.27.27-.44.43,1.68.65,2.52,1.08,4.2Z"/>
    <path class="cls-1" d="M100.78,21.65c1.77-.29,2.65-.43,4.43-.65.03.26.05.39.08.65-2.07.27-3.11.42-5.17.78-.49-2.84-.74-4.26-1.24-7.1,2.12-.37,3.19-.53,5.33-.81.03.26.05.39.08.65-1.8.23-2.69.37-4.48.66.39,2.32.58,3.49.97,5.81ZM100.14,18.38c1.6-.27,2.4-.39,4-.6.03.26.05.39.09.64-1.59.21-2.39.33-3.98.6-.04-.26-.06-.38-.11-.64Z"/>
    <path class="cls-1" d="M109.74,21.17c-.26-2.87-.39-4.31-.64-7.18,1.17-.1,1.75-.15,2.93-.23.66-.04,1.24.02,1.73.19.49.17.86.44,1.13.79.27.36.41.8.43,1.32.02.51-.09.95-.32,1.33-.23.38-.58.67-1.02.89-.45.22-.99.35-1.63.39-.95.06-1.42.1-2.37.18.13-.15.19-.23.33-.38.09,1.05.13,1.58.22,2.63-.31.03-.47.04-.78.07ZM110.3,18.53c-.15-.13-.23-.2-.39-.33.94-.08,1.42-.12,2.36-.18.76-.05,1.32-.24,1.7-.57.38-.34.56-.79.53-1.36-.03-.58-.25-1.01-.67-1.31-.42-.29-1.02-.42-1.8-.37-.97.06-1.46.1-2.43.18.13-.16.2-.23.34-.39.14,1.73.21,2.59.36,4.32ZM114.77,20.83c-.81-1.01-1.22-1.51-2.06-2.51.34-.02.52-.03.86-.05.84,1,1.25,1.51,2.05,2.52-.34.01-.51.02-.85.04Z"/>
    <path class="cls-1" d="M119.98,20.71c0-2.88,0-4.32,0-7.21.33,0,.5,0,.83,0-.02,2.88-.03,4.32-.04,7.21-.31,0-.47,0-.78,0Z"/>
    <path class="cls-1" d="M126.62,20.23c1.78.1,2.67.17,4.45.34-.02.26-.04.39-.06.66-2.08-.2-3.12-.27-5.21-.37.14-2.88.21-4.32.35-7.2,2.15.11,3.22.18,5.36.38-.02.26-.04.39-.06.66-1.8-.17-2.7-.24-4.51-.34-.13,2.35-.2,3.53-.33,5.88ZM126.72,16.91c1.61.09,2.42.15,4.03.29-.02.26-.03.39-.06.65-1.6-.14-2.4-.2-4-.29.01-.26.02-.39.04-.65Z"/>
    <path class="cls-1" d="M135.45,21.73c.38-2.86.57-4.29.95-7.14.27.04.41.05.68.09,1.8,2.78,2.65,4.19,4.22,7.02-.13-.02-.2-.04-.34-.06.45-2.46.67-3.7,1.12-6.16.32.06.48.09.81.15-.53,2.83-.8,4.25-1.33,7.08-.25-.05-.38-.07-.63-.12-1.56-2.83-2.39-4.23-4.18-7.01.14.02.21.03.35.05-.35,2.48-.52,3.72-.87,6.2-.31-.04-.46-.06-.77-.11Z"/>
    <path class="cls-1" d="M149.63,24.59c-.54-.14-1.02-.36-1.44-.65-.42-.29-.76-.64-1.02-1.04-.26-.4-.44-.84-.54-1.32-.09-.48-.08-.98.04-1.49s.32-.97.62-1.36.66-.7,1.1-.94.92-.38,1.45-.44c.53-.06,1.09,0,1.66.14.55.15,1.05.37,1.49.67.44.3.77.67,1.01,1.1-.26.13-.38.19-.64.32-.23-.38-.51-.68-.85-.91-.34-.23-.73-.41-1.16-.52-.46-.12-.9-.16-1.33-.11-.43.04-.82.16-1.17.36-.35.19-.65.45-.9.76-.24.31-.41.68-.51,1.1-.1.42-.11.82-.04,1.21.07.39.22.75.43,1.08.21.33.49.61.83.85.34.24.72.41,1.16.53.41.11.82.15,1.21.11.39-.03.78-.15,1.16-.36.14.24.21.36.35.6-.41.25-.87.39-1.38.43-.51.05-1.02,0-1.55-.14Z"/>
    <path class="cls-1" d="M156.43,26.54c.9-2.74,1.35-4.11,2.25-6.85.32.1.48.16.8.26-.92,2.73-1.38,4.1-2.3,6.83-.3-.1-.45-.15-.75-.25Z"/>
    <path class="cls-1" d="M160.87,28.1c2.29-2.22,3.48-3.31,5.92-5.42.31.13.46.19.77.32.24,3.22.31,4.83.39,8.02-.31-.14-.46-.21-.77-.34-.07-2.99-.13-4.49-.34-7.5.13.05.19.08.32.13-2.27,1.99-3.38,3.01-5.52,5.08-.31-.12-.46-.18-.77-.29ZM162.83,26.78c.18-.2.27-.29.45-.49,1.66.65,2.49.99,4.13,1.7,0,.26-.01.4-.02.66-1.81-.79-2.72-1.16-4.55-1.88Z"/>
  </g>
</svg>