<?xml version="1.0" encoding="UTF-8"?>
<svg id="Capa_1" data-name="Capa 1" xmlns="http://www.w3.org/2000/svg" viewBox="0 0 415 353">
  <defs>
    <style>
      .cls-1 {
        fill: #956852;
        stroke-width: 0px;
      }
    </style>
  </defs>
  <path class="cls-1" d="M258.69,86.46c-.06-11.34.61-22.7-.57-34.03-2.52-24.27-24.11-44.62-48.24-45.46-30.08-1.05-54.2,22.12-54.38,52.34-.09,15.67-.02,31.34-.02,47.01,0,16.39.08,32.78-.07,49.16-.03,3.3.74,4.42,4.26,4.41,31.62-.14,63.25-.15,94.87,0,3.58.02,4.26-1.15,4.24-4.42-.12-23,.02-46-.09-69ZM248.27,32.37c5.55,9.42,8.07,19.48,7.72,30.02-8.36-7.9-16.71-15.77-25.02-23.67-1.87-1.78-3.53-3.8-5.44-5.54-1.64-1.5-2.44-3.01-1.64-5.29.85-2.42,2.77-1.58,4.34-1.64,2.87-.1,5.81.35,8.61-.1,5.56-.88,8.74,1.67,11.41,6.2ZM239.8,65.91c-4.17,3.27-8.57,6.25-12.95,9.23-4.25,2.89-8.52,5.73-12.81,9.72,1.03-13.72,9.27-22.53,22.92-25.01,2.41-.44,6.15-2.25,7.12-.2,1.15,2.42-2.22,4.64-4.29,6.26ZM244.25,65.35c-1.05,16.4-15.87,28.32-31.09,25.57,7.73-11.69,21.47-15.41,31.09-25.57ZM241.23,23.61c-5.74,0-10.17-.01-14.59,0-1.2,0-2.46,0-2.7-1.47-.69-4.07-2.96-7.32-6.03-11.15,9.19,1.93,16.11,6.07,23.33,12.61ZM217.65,15.16c5.31,5.76,5.06,14.91-.41,20.28-1.53,1.5-2.32,1.52-3.52-.35-2.07-3.25-4.43-6.32-7.01-9.96-2.36,3.27-4.6,6.04-6.45,9.05-1.34,2.18-2.26,2.55-4.05.48-5.24-6.05-4.7-14.93,1.39-20.56,5.85-5.4,14.52-4.95,20.05,1.05ZM201.67,41.37c3.41,1.38,6.98,1.36,10.51.19.94-.32,1.94-.9,2.59.37,2.16,4.19,4.72,8.28,2.39,13.32-2.06,4.46-5.46,6.81-9.47,7.1-8.72.08-14.34-7.83-11.59-15.15.55-1.47,1.32-2.85,1.94-4.3.73-1.71,1.64-2.34,3.64-1.53ZM202.05,36.11c1.4-1.96,2.78-3.93,4.56-6.45,1.4,1.91,2.62,3.32,3.53,4.9.73,1.26,2.78,2.37,1.68,3.96-.84,1.22-2.82,1.24-4.39,1.17-1.41-.06-2.81-.33-4.2-.59-1.9-.36-2.34-1.37-1.19-2.99ZM197.18,10.51c-3.88,3.81-6.13,7.36-7.01,11.64-.26,1.26-1.18,1.46-2.27,1.46-4.55,0-9.09,0-14.69,0,6.96-6.88,14.39-10.66,23.96-13.1ZM169.07,28.12c.63-.79,1.27-1.74,2.34-1.75,5.74-.08,11.49-.25,17.21.02,2.22.11,2.58,3.74.56,5.81-6.81,6.99-13.64,13.96-20.54,20.87-3.23,3.24-6.63,6.32-10.45,9.95-.32-13.24,2.9-24.8,10.88-34.9ZM188.17,157.16c-9.06-.05-18.11-.07-27.17.02-2.75.03-2.91-1.53-2.9-3.62.04-15.09.02-30.18.02-45.27,6.32,12.56,16.89,17.58,30.19,18.12,1.87.08,2.41,1.04,2.4,2.77-.04,8.48-.05,16.96,0,25.44.01,1.84-.71,2.55-2.55,2.54ZM158.63,92.03c15.66-2.47,30.86,10.04,31.02,25.4-9.32-9.86-23.03-13.73-31.02-25.4ZM189.37,122.81c-1.31,2.72-5.69.54-8.59-.1-12.65-2.8-19.21-10.33-21.6-25.2,7.85,7.73,17.07,12.02,24.82,18.35,2.38,1.94,6.57,4.47,5.37,6.96ZM197.07,157.24c-3.1.03-3.84-1.05-3.8-3.99.15-10.34.15-20.68-.01-31.02-.31-20.11-11.35-31.88-31.35-33.32-2.99-.22-4.07-1.09-3.84-4.08.23-3,.06-6.03.06-9.04q0-9.41,8.32-16.06c.51,6.8,1.47,13.04,4.46,18.72,5.62,10.66,15.35,14.61,26.59,15.65,2.92.27,3.89,1.01,3.86,4.02-.13,18.38-.16,36.77,0,55.15.03,3.46-1.31,3.95-4.3,3.98ZM193,82.18c2.65,1.99,5.19,4.1,7.06,6.86.68,1,1.66,2.27-.85,2.56-13.99,1.59-28.28-10.85-29-25.95,7.27,6.77,15.47,11.04,22.79,16.53ZM170.5,59.99c1.27-2.63,5.93-.41,8.94.31,12.65,3.01,19.55,11.01,21.15,24.8-7.77-7.34-16.76-11.7-24.42-17.88-2.49-2.01-6.92-4.62-5.67-7.22ZM210.45,125.86c0,9.2-.04,18.41.03,27.61.02,2.3-.18,3.79-3.16,3.75-2.74-.03-3.41-1.1-3.4-3.6.06-18.7.06-37.39,0-56.09,0-2.4.78-3.24,3.23-3.29,2.76-.06,3.38,1.05,3.35,3.58-.12,9.35-.05,18.69-.05,28.04ZM207.1,91.76c-3.33-.04-3.2-1.87-3.34-4.12-1.19-18.42-11.66-29.29-29.99-31.21-1.09-.11-2.19-.2-4.27-.38,7.48-7.62,14.37-14.64,21.27-21.65.47-.48.83-.98,1.74-.38,2.83,1.85,4.01,5.73,2.53,8.9-5.18,11.12.27,21.6,11.26,22.12,8.77.42,18.81-9.69,12.41-20.98-1.98-3.49-1.34-5.26,1.19-7.92,2.07-2.17,2.91-1.99,4.84-.07,6.4,6.37,12.99,12.54,19.51,18.78-.27.42-.55.84-.82,1.26-1.7.24-3.4.43-5.09.71-17.27,2.86-26.58,13.1-27.72,30.57-.16,2.4.05,4.41-3.53,4.36ZM253.22,157.16c-8.91-.06-17.81-.04-26.72,0-1.99.01-2.83-.76-2.82-2.8.06-8.33.11-16.66,0-24.99-.05-3.14,1.97-2.87,4-3.03,9.83-.79,18.53-3.91,24.56-12.29,1.21-1.68,2.14-3.54,3.82-6.35,0,16.38-.01,31.53.02,46.68,0,2.02-.83,2.78-2.85,2.77ZM225.44,120.99c1.81-2.65,4.28-4.63,6.81-6.54,7.42-5.61,15.9-9.73,22.83-16.76-1.87,18.82-14.59,25.11-28.37,26.08-2.91.21-2.35-1.21-1.27-2.78ZM224.89,117.34c-.25-14.87,14.41-27.08,31.09-25.48-8.2,11.88-21.84,15.76-31.09,25.48ZM255.67,87.08c-1.8,3.86-7.17,1.78-10.9,2.79-14.91,4.04-23.34,15.31-23.66,32.9-.18,10.05-.14,20.11.01,30.16.04,2.98-.45,4.41-3.94,4.33-3.11-.07-4.22-.75-4.19-4.08.16-18.38.09-36.77.1-55.15,0-1.84-.39-3.66,2.58-3.85,19.06-1.19,30.49-10.91,32.36-33.86,5.14,4.11,9.24,7.85,8.12,14.86-.63,3.92,1.06,8.59-.49,11.9Z"/>
  <g>
    <path class="cls-1" d="M.5,249.07c-.3-.61-.61-1.21-.91-2.12-.3-.91.3-2.43,1.52-3.04.61-.61,1.21-.61,2.73-.3,2.43.3,7.29-.3,17.91-2.12,4.25-.61,10.32-1.82,13.36-2.13l5.16-.91,2.43-4.86c1.52-2.43,5.46-10.62,9.41-17.61,10.62-20.64,14.57-27.32,20.64-37.94,9.71-16.39,19.73-29.75,24.28-32.18,2.13-1.21,3.64-.91,4.55,1.52.3,1.52,0,7.29-.91,13.36-3.64,21.25-8.8,61.01-8.8,61.01,0,0,1.52-.3,3.34-.91,6.68-2.12,9.11-2.43,10.93-.61.61.91.61,1.52,0,2.43-.61.91-1.82,1.21-8.5,2.43-3.04.61-5.77,1.21-6.07,1.52-.61,0-.61.61-.61,2.73-.3,1.21-1.52,11.23-2.73,22.16-3.34,26.71-3.95,33.09-4.55,42.19-1.21,10.32-1.52,11.54-3.34,12.75-.91.91-2.73.91-3.64,0-1.21-.61-1.52-2.12-1.52-3.95,0-2.13,0-4.86,3.04-19.12,2.12-12.14,3.95-20.95,4.86-27.93.91-6.07,4.25-27.93,4.25-27.93,0,0-9.71,2.43-17.61,4.86-10.93,3.34-16.7,4.86-22.46,6.07-1.21,0-2.43.3-2.73.3-.3.3-.91.91-6.07,12.75-3.34,7.59-6.37,14.27-11.54,26.41-1.52,3.95-3.04,7.59-3.34,7.89-1.21,2.43-3.04,3.04-4.86,2.43-1.21-.61-1.82-1.52-1.82-3.34,0-.91,1.21-2.73,7.29-15.48,3.95-7.89,9.11-17.61,11.23-21.86,2.13-4.25,3.95-7.59,3.95-7.59-.3-.3-5.46.91-18.82,3.34-13.96,2.73-13.36,2.73-13.96,3.34-1.21,1.52-3.95,1.82-5.16.61l-.91,1.82ZM44.52,237.23s.61,0,3.95-.91c6.37-1.52,14.27-3.95,23.68-6.98,3.95-1.52,14.57-5.46,14.87-5.46s.91-2.73,1.52-6.07c.3-2.73,1.82-11.23,3.04-18.21,1.82-11.23,3.04-16.39,6.07-34.3,1.52-7.59,1.82-9.71,1.82-13.05.3-3.34,0-4.86-.61-4.86s-4.25,3.64-6.37,6.37c-9.41,12.75-24.28,37.94-39.46,67.69"/>
    <path class="cls-1" d="M208.14,261.21c.91-.61,1.52.61,0,1.82-3.34,2.43-24.89,17.61-30.05,21.86-7.29,5.77-10.93,8.2-14.57,10.32-5.46,2.73-9.11,3.04-11.54.61-2.43-2.43-3.04-6.37-.91-13.05,2.13-7.59,6.07-15.48,16.09-31.87,6.37-10.93,9.71-16.7,8.8-17,0,0-.3,0-1.21.3-5.16,2.12-14.27,9.71-24.89,20.34-4.86,4.86-7.89,7.89-13.66,14.57-5.46,6.68-6.68,7.29-7.89,6.98-.91,0-1.21-.91-2.12-3.04-.3-.91-.61-2.13-.91-2.73-.61-1.21-2.73-.3-5.46,1.82-2.73,1.82-3.34,3.04-3.95,5.46-3.04,8.2-6.98,14.87-10.62,17.3-1.82,1.52-3.95.61-3.95-1.52,0-.91.91-3.34,3.64-7.29,2.43-3.64,5.77-12.14,6.98-18.21.91-4.86,1.82-11.84.91-13.36v-.3l-.3.3v-2.43c.3-.3.61-.3.61-.3,0-.61,1.82-1.21,2.73-1.21,3.04,0,4.86,3.64,3.95,10.32,0,2.43-.3,4.86-1.21,9.11-.3.3,0,.3,1.21-.61,1.82-1.21,3.34-1.82,4.86-1.82,1.82,0,2.73,1.21,3.64,4.55.3,1.82.61,2.43,1.21,2.43.3,0,3.64-3.34,10.02-10.62,10.62-12.14,17.3-19.12,24.89-25.19,5.16-4.55,9.71-7.29,12.45-8.2q1.21-.3,2.13.3c1.21.61,1.82,1.82,1.82,3.64,0,4.25-2.13,9.11-12.45,29.14-9.41,18.21-12.45,25.2-12.45,28.53,0,.61.3,1.21.3,1.21.3.61,2.43.61,3.64,0,4.55-.91,13.36-6.37,23.98-14.27,7.29-5.16,25.2-17.3,25.2-17.3l-.91-.61Z"/>
    <path class="cls-1" d="M271.64,251.13c-2.96,1.15-6.33,2.48-10.08,4.01-5.46,2.43-14.27,6.07-17.61,7.59-1.21.61-2.43.91-2.43.91,0,0,.91-.61,1.21-1.82,1.82-2.43,3.34-5.77,3.64-7.28.91-3.04,0-5.77-1.82-6.68-1.82-.91-4.86-1.21-8.5-.61-7.89,1.82-20.03,7.29-29.14,13.36-.87.65-1.58.99-1.8,1.13.22-.68,2.56-5.06,5.44-10.54,9.66-18.24,16.95-32.22,25.42-49.05.36-.72-.02-1.61-.8-1.82-.01,0-.02,0-.03,0-1.09-.29-2.24.21-2.76,1.21-.22.42-.41.79-.58,1.11-3.95,6.98-8.5,15.18-15.48,25.8-2.43,4.25-5.46,9.71-6.68,11.84l-2.43,4.25-3.34,5.16c.3,0-8.2,13.36-11.84,18.21-3.95,6.07-4.25,6.37-4.55,7.59-.61,2.43,1.82,5.16,4.55,4.55,2.13-.3,3.95-2.43,7.29-8.5,1.21-2.12,2.43-3.95,3.34-4.55,1.21-1.21,6.07-4.86,10.02-7.29,7.89-4.55,19.73-9.41,25.8-10.32,3.04-.61,4.25-.61,5.46.3q.61,1.21.61,2.13c0,2.73-2.13,7.59-6.37,12.45l-1.52,1.82-7.29,3.64c-10.02,5.16-17,8.8-24.28,13.05-9.11,5.77-16.7,11.84-18.52,14.57-1.82,2.73,0,5.16,3.34,4.55,3.04-.61,10.93-4.55,17-8.5,10.32-5.77,18.82-12.45,26.11-20.04,3.64-3.34,2.73-2.73,12.14-6.98,5.74-2.57,17.01-6.82,25.85-9.97.31-1.74.52-3.5.62-5.28ZM227.26,275.17c-1.52,1.21-6.98,5.46-9.71,7.29h-.3c-6.68,4.86-15.48,10.02-22.16,13.05-.91.3-2.13.91-2.13.91,0,0,1.82-1.82,4.55-3.64,4.86-3.64,11.23-7.89,18.52-11.84,4.86-3.04,12.14-6.68,11.23-5.77Z"/>
    <path class="cls-1" d="M337.48,288.29c-1.73-12.22,9.21-30.35,9.96-36.47-.04-.29.06-.59.02-.88-.55-3.88-8.71-2.44-12.65-4.37-.82-.62-1.41-1.71-1.62-3.15-.37-2.59.46-6.08,2.5-9.3.74-.99,1.83-1.58,2.98-1.74,2.44-.35,5.13,1.04,5.52,3.77.18,1.29-.04,2.79-1.26,4.58,5.28,1.02,10.41,2.05,11.18,7.51.12.86.24,1.73.1,2.77-.21,4.72-15.1,26.04-13.35,38.41l.12.86c.73,3.12,2.66,5.34,6.23,5.72.6.06,1.33.11,2.05,0,16.83-2.38,51.63-51.89,61.96-59.8.93-.72,1.87-1.29,2.8-2.01.33.25.51.51.68.64-.49.66-.97,1.46-1.65,1.85-16,13.41-45.98,58.72-64.1,61.28-.72.1-1.3.18-1.89.12-4.87-.19-6.96-2.54-8.41-5.56-.61-1.23-.96-2.65-1.18-4.23Z"/>
    <path class="cls-1" d="M340.9,244.14c-.85,2.35,1.84,2.55-16.98,13.4-14.07,8.11-22.13,12.93-25.55,11.44-4.06-1.92-4.81-3.75-2.25-11.23l1.5-4.27-4.7,3.84c-5.77,4.7-15.59,11.32-20.29,13.46-4.27,2.14-7.69,2.56-9.82,1.07-.85-.64-1.92-1.71-2.14-2.14-2.35-4.7,5.98-16.23,17.51-24.99,4.06-2.99,5.98-3.84,8.76-3.84,4.06,0,7.69,2.14,10.68,5.98.43.85.64.85,1.5.21.85-.86,1.92-1.07,3.2-.43,1.28.85,1.07,2.99-1.28,9.18-1.07,2.99-2,6.26-2.14,7.69-.11,1.14-.28,2.87.65,3.24.63.25,2.39.36,4-.33,7.24-2.29,27.17-14.67,30.83-17.9,2.32-1.8,4.74-3.32,5.81-2.46.64.43.93-2.77.71-1.92ZM291.01,245.99c-2.99-2.14-6.62-1.07-12.6,3.85-7.48,5.98-13.88,13.88-13.88,17.09,0,2.14.43,2.14,3.84,1.07,4.7-1.5,23.92-14.31,25.63-16.87.64-1.07-.85-3.84-2.99-5.13Z"/>
  </g>
  <g>
    <path class="cls-1" d="M119.43,335.9c0,3.9-2.83,6.25-7.48,6.25h-4.92v5.78h-1.93v-18.3h6.85c4.65,0,7.48,2.35,7.48,6.28ZM117.49,335.9c0-2.93-1.94-4.6-5.6-4.6h-4.86v9.15h4.86c3.66,0,5.6-1.67,5.6-4.55Z"/>
    <path class="cls-1" d="M140.54,338.78c0-5.33,4.08-9.31,9.62-9.31s9.6,3.95,9.6,9.31-4.1,9.31-9.6,9.31-9.62-3.97-9.62-9.31ZM157.82,338.78c0-4.37-3.27-7.58-7.66-7.58s-7.71,3.22-7.71,7.58,3.29,7.58,7.71,7.58,7.66-3.22,7.66-7.58Z"/>
    <path class="cls-1" d="M180.63,345.71l.76-1.49c1.31,1.28,3.63,2.22,6.04,2.22,3.43,0,4.92-1.44,4.92-3.24,0-5.02-11.27-1.94-11.27-8.71,0-2.69,2.09-5.02,6.75-5.02,2.07,0,4.21.6,5.67,1.62l-.65,1.54c-1.57-1.02-3.4-1.52-5.02-1.52-3.35,0-4.84,1.49-4.84,3.32,0,5.02,11.27,1.99,11.27,8.65,0,2.69-2.14,4.99-6.82,4.99-2.75,0-5.44-.97-6.8-2.38Z"/>
    <path class="cls-1" d="M228.23,343.04h-10.2l-2.2,4.89h-2.01l8.37-18.3h1.91l8.37,18.3h-2.04l-2.2-4.89ZM227.53,341.47l-4.39-9.83-4.39,9.83h8.79Z"/>
    <path class="cls-1" d="M253.79,329.62h7.45c5.86,0,9.8,3.77,9.8,9.15s-3.95,9.15-9.8,9.15h-7.45v-18.3ZM261.14,346.25c4.86,0,8-3.09,8-7.48s-3.14-7.48-8-7.48h-5.41v14.96h5.41Z"/>
    <path class="cls-1" d="M304.89,343.04h-10.2l-2.2,4.89h-2.01l8.37-18.3h1.91l8.37,18.3h-2.04l-2.2-4.89ZM304.18,341.47l-4.39-9.83-4.39,9.83h8.79Z"/>
  </g>
</svg>