<?xml version="1.0" encoding="UTF-8"?>
<svg id="Capa_1" data-name="Capa 1" xmlns="http://www.w3.org/2000/svg" viewBox="0 0 35 35">
  <defs>
    <style>
      .cls-1 {
        fill: #956852;
        stroke-width: 0px;
      }
    </style>
  </defs>
  <path class="cls-1" d="m34.55,16.12v2.8c-.08.54-.13,1.08-.24,1.61-1.43,6.79-5.46,11.24-12.05,13.39-1.09.36-2.22.5-3.35.64h-2.8c-.25-.04-.5-.07-.76-.1-3.93-.51-7.3-2.17-10.04-5.01C1.7,25.71.1,21.2.51,16.01c.19-2.38.88-4.61,2.03-6.7C6.02,2.99,13.17-.69,20.53.74c6.79,1.32,11.22,5.43,13.38,11.99.36,1.1.51,2.24.65,3.39Zm-17.01.02c-.53,0-1.06,0-1.6,0-1.84,0-3.68,0-5.52,0-.92,0-1.54.81-1.34,1.69.15.65.7,1.06,1.46,1.06,4.48,0,8.96,0,13.44,0,.23,0,.47,0,.7,0,.61-.03,1.13-.46,1.26-1.05.2-.9-.43-1.69-1.38-1.7-2.34,0-4.68,0-7.02,0Zm-.02-2.91c2.25,0,4.5,0,6.75,0,.22,0,.44-.02.66-.07.6-.14,1.03-.68,1.05-1.3.02-.62-.42-1.21-1.02-1.35-.21-.05-.44-.04-.66-.04-3.26,0-6.52,0-9.78,0-1.35,0-2.71,0-4.06,0-.81,0-1.35.51-1.42,1.28-.06.7.45,1.31,1.23,1.44.16.03.33.03.5.03,2.25,0,4.5,0,6.75,0Zm-.02,11.33h0c2.38,0,4.77,0,7.15,0,.74,0,1.28-.56,1.33-1.31.04-.66-.44-1.26-1.13-1.39-.18-.03-.37-.05-.56-.05-4.52,0-9.05,0-13.57,0-.11,0-.22,0-.33.01-.94.11-1.49.82-1.31,1.68.13.65.66,1.07,1.41,1.07,2.34,0,4.68,0,7.02,0Z"/>
</svg>