<?xml version="1.0" encoding="UTF-8"?>
<svg id="Capa_1" data-name="Capa 1" xmlns="http://www.w3.org/2000/svg" viewBox="0 0 80 40">
  <defs>
    <style>
      .cls-1 {
        fill: #956852;
        stroke-width: 0px;
      }
    </style>
  </defs>
  <path class="cls-1" d="m.28,24.41c-.06-.12-.12-.23-.18-.41-.06-.18.06-.47.29-.58.12-.12.23-.12.53-.06.47.06,1.4-.06,3.44-.41.82-.12,1.98-.35,2.57-.41l.99-.18.47-.93c.29-.47,1.05-2.04,1.81-3.38,2.04-3.97,2.8-5.25,3.97-7.3,1.87-3.15,3.79-5.72,4.67-6.19.41-.23.7-.18.88.29.06.29,0,1.4-.18,2.57-.7,4.09-1.69,11.73-1.69,11.73,0,0,.29-.06.64-.18,1.28-.41,1.75-.47,2.1-.12.12.18.12.29,0,.47s-.35.23-1.63.47c-.58.12-1.11.23-1.17.29-.12,0-.12.12-.12.53-.06.23-.29,2.16-.53,4.26-.64,5.14-.76,6.36-.88,8.11-.23,1.98-.29,2.22-.64,2.45-.18.18-.53.18-.7,0-.23-.12-.29-.41-.29-.76,0-.41,0-.93.58-3.68.41-2.33.76-4.03.93-5.37.18-1.17.82-5.37.82-5.37,0,0-1.87.47-3.38.93-2.1.64-3.21.93-4.32,1.17-.23,0-.47.06-.53.06-.06.06-.18.18-1.17,2.45-.64,1.46-1.23,2.74-2.22,5.08-.29.76-.58,1.46-.64,1.52-.23.47-.58.58-.93.47-.23-.12-.35-.29-.35-.64,0-.18.23-.53,1.4-2.98.76-1.52,1.75-3.38,2.16-4.2.41-.82.76-1.46.76-1.46-.06-.06-1.05.18-3.62.64-2.68.53-2.57.53-2.68.64-.23.29-.76.35-.99.12l-.18.35Zm8.46-2.28s.12,0,.76-.18c1.23-.29,2.74-.76,4.55-1.34.76-.29,2.8-1.05,2.86-1.05s.18-.53.29-1.17c.06-.53.35-2.16.58-3.5.35-2.16.58-3.15,1.17-6.59.29-1.46.35-1.87.35-2.51.06-.64,0-.93-.12-.93s-.82.7-1.23,1.23c-1.81,2.45-4.67,7.3-7.59,13.01"/>
  <path class="cls-1" d="m40.2,23.38c.18-.12.29.12,0,.35-.64.47-4.79,3.38-5.78,4.2-1.4,1.11-2.1,1.58-2.8,1.98-1.05.53-1.75.58-2.22.12-.47-.47-.58-1.23-.18-2.51.41-1.46,1.17-2.98,3.09-6.13,1.23-2.1,1.87-3.21,1.69-3.27,0,0-.06,0-.23.06-.99.41-2.74,1.87-4.79,3.91-.93.93-1.52,1.52-2.63,2.8-1.05,1.28-1.28,1.4-1.52,1.34-.18,0-.23-.18-.41-.58-.06-.18-.12-.41-.18-.53-.12-.23-.53-.06-1.05.35-.53.35-.64.58-.76,1.05-.58,1.58-1.34,2.86-2.04,3.33-.35.29-.76.12-.76-.29,0-.18.18-.64.7-1.4.47-.7,1.11-2.33,1.34-3.5.18-.93.35-2.28.18-2.57v-.06l-.06.06v-.47c.06-.06.12-.06.12-.06,0-.12.35-.23.53-.23.58,0,.93.7.76,1.98,0,.47-.06.93-.23,1.75-.06.06,0,.06.23-.12.35-.23.64-.35.93-.35.35,0,.53.23.7.88.06.35.12.47.23.47.06,0,.7-.64,1.93-2.04,2.04-2.33,3.33-3.68,4.79-4.84.99-.88,1.87-1.4,2.39-1.58q.23-.06.41.06c.23.12.35.35.35.7,0,.82-.41,1.75-2.39,5.6-1.81,3.5-2.39,4.84-2.39,5.49,0,.12.06.23.06.23.06.12.47.12.7,0,.88-.18,2.57-1.23,4.61-2.74,1.4-.99,4.84-3.33,4.84-3.33l-.18-.12Z"/>
  <path class="cls-1" d="m52.41,21.45c-.57.22-1.22.48-1.94.77-1.05.47-2.74,1.17-3.38,1.46-.23.12-.47.18-.47.18,0,0,.18-.12.23-.35.35-.47.64-1.11.7-1.4.18-.58,0-1.11-.35-1.28-.35-.18-.93-.23-1.63-.12-1.52.35-3.85,1.4-5.6,2.57-.17.13-.3.19-.35.22.04-.13.49-.97,1.05-2.03,1.86-3.51,3.26-6.2,4.89-9.43.07-.14,0-.31-.15-.35,0,0,0,0,0,0-.21-.06-.43.04-.53.23-.04.08-.08.15-.11.21-.76,1.34-1.63,2.92-2.98,4.96-.47.82-1.05,1.87-1.28,2.28l-.47.82-.64.99c.06,0-1.58,2.57-2.28,3.5-.76,1.17-.82,1.23-.88,1.46-.12.47.35.99.88.88.41-.06.76-.47,1.4-1.63.23-.41.47-.76.64-.88.23-.23,1.17-.93,1.93-1.4,1.52-.88,3.79-1.81,4.96-1.98.58-.12.82-.12,1.05.06q.12.23.12.41c0,.53-.41,1.46-1.23,2.39l-.29.35-1.4.7c-1.93.99-3.27,1.69-4.67,2.51-1.75,1.11-3.21,2.28-3.56,2.8s0,.99.64.88c.58-.12,2.1-.88,3.27-1.63,1.98-1.11,3.62-2.39,5.02-3.85.7-.64.53-.53,2.33-1.34,1.1-.49,3.27-1.31,4.97-1.92.06-.34.1-.67.12-1.01Zm-8.53,4.62c-.29.23-1.34,1.05-1.87,1.4h-.06c-1.28.93-2.98,1.93-4.26,2.51-.18.06-.41.18-.41.18,0,0,.35-.35.88-.7.93-.7,2.16-1.52,3.56-2.28.93-.58,2.33-1.28,2.16-1.11Z"/>
  <path class="cls-1" d="m65.06,28.59c-.33-2.35,1.77-5.83,1.91-7.01,0-.06.01-.11,0-.17-.11-.75-1.67-.47-2.43-.84-.16-.12-.27-.33-.31-.6-.07-.5.09-1.17.48-1.79.14-.19.35-.3.57-.33.47-.07.99.2,1.06.72.04.25,0,.54-.24.88,1.01.2,2,.39,2.15,1.44.02.17.05.33.02.53-.04.91-2.9,5.01-2.57,7.38l.02.17c.14.6.51,1.03,1.2,1.1.11.01.26.02.4,0,3.24-.46,9.93-9.98,11.91-11.5.18-.14.36-.25.54-.39.06.05.1.1.13.12-.09.13-.19.28-.32.36-3.08,2.58-8.84,11.29-12.32,11.78-.14.02-.25.04-.36.02-.94-.04-1.34-.49-1.62-1.07-.12-.24-.18-.51-.23-.81Z"/>
  <path class="cls-1" d="m65.72,20.1c-.16.45.35.49-3.26,2.58-2.7,1.56-4.26,2.49-4.91,2.2-.78-.37-.92-.72-.43-2.16l.29-.82-.9.74c-1.11.9-3,2.18-3.9,2.59-.82.41-1.48.49-1.89.21-.16-.12-.37-.33-.41-.41-.45-.9,1.15-3.12,3.37-4.8.78-.57,1.15-.74,1.68-.74.78,0,1.48.41,2.05,1.15.08.16.12.16.29.04.16-.16.37-.21.62-.08.25.16.21.57-.25,1.77-.21.57-.38,1.2-.41,1.48-.02.22-.05.55.12.62.12.05.46.07.77-.06,1.39-.44,5.22-2.82,5.93-3.44.45-.35.91-.64,1.12-.47.12.08.18-.53.14-.37Zm-9.59.36c-.57-.41-1.27-.21-2.42.74-1.44,1.15-2.67,2.67-2.67,3.28,0,.41.08.41.74.21.9-.29,4.6-2.75,4.93-3.24.12-.21-.16-.74-.57-.99Z"/>
</svg>