<?xml version="1.0" encoding="UTF-8"?>
<svg id="Capa_1" data-name="Capa 1" xmlns="http://www.w3.org/2000/svg" viewBox="0 0 1200 630">
  <defs>
    <style>
      .cls-1 {
        fill: #956852;
        stroke-width: 0px;
      }
    </style>
  </defs>
  <path class="cls-1" d="M697.92,151.9c-.1-20.38,1.09-40.8-1.02-61.15-4.53-43.6-43.33-80.17-86.68-81.69-54.05-1.89-97.39,39.74-97.71,94.04-.17,28.15-.03,56.31-.04,84.46,0,29.45.15,58.89-.13,88.34-.06,5.94,1.32,7.95,7.66,7.92,56.82-.25,113.65-.26,170.47,0,6.43.03,7.65-2.07,7.62-7.94-.22-41.33.04-82.65-.17-123.98ZM679.21,54.71c9.97,16.93,14.5,35,13.88,53.95-15.03-14.2-30.03-28.33-44.95-42.53-3.37-3.2-6.34-6.82-9.77-9.95-2.95-2.7-4.38-5.41-2.94-9.5,1.53-4.34,4.98-2.84,7.8-2.94,5.16-.19,10.44.62,15.48-.17,9.99-1.58,15.71,3,20.51,11.15ZM663.99,114.98c-7.49,5.87-15.4,11.23-23.28,16.59-7.63,5.19-15.32,10.3-23.01,17.47,1.86-24.65,16.66-40.47,41.19-44.95,4.33-.79,11.05-4.03,12.8-.36,2.07,4.35-3.99,8.34-7.7,11.25ZM671.98,113.97c-1.89,29.46-28.51,50.89-55.87,45.95,13.89-21,38.58-27.69,55.87-45.95ZM666.56,38.97c-10.32,0-18.27-.02-26.22.01-2.16.01-4.41-.02-4.86-2.64-1.25-7.31-5.33-13.15-10.84-20.03,16.51,3.46,28.95,10.91,41.92,22.65ZM624.18,23.78c9.54,10.36,9.1,26.8-.74,36.44-2.74,2.69-4.17,2.74-6.33-.64-3.73-5.84-7.96-11.36-12.59-17.89-4.24,5.88-8.27,10.86-11.59,16.27-2.4,3.91-4.06,4.59-7.28.87-9.42-10.87-8.44-26.83,2.5-36.94,10.51-9.7,26.1-8.89,36.02,1.89ZM595.48,70.88c6.13,2.48,12.55,2.45,18.88.33,1.69-.57,3.48-1.62,4.66.67,3.87,7.53,8.48,14.87,4.29,23.93-3.7,8.01-9.82,12.24-17.02,12.76-15.68.14-25.77-14.07-20.82-27.23.99-2.64,2.37-5.12,3.48-7.72,1.31-3.07,2.95-4.2,6.53-2.75ZM596.16,61.43c2.51-3.53,5-7.07,8.2-11.59,2.52,3.44,4.7,5.97,6.34,8.81,1.3,2.26,4.99,4.26,3.03,7.11-1.52,2.2-5.06,2.22-7.88,2.1-2.53-.11-5.05-.58-7.55-1.06-3.42-.65-4.21-2.46-2.14-5.37ZM587.41,15.42c-6.97,6.84-11.01,13.23-12.6,20.92-.47,2.26-2.12,2.63-4.07,2.63-8.17-.02-16.34,0-26.39,0,12.51-12.37,25.85-19.15,43.06-23.54ZM536.9,47.07c1.13-1.42,2.28-3.13,4.2-3.15,10.31-.14,20.64-.45,30.93.04,3.99.19,4.63,6.72,1.01,10.44-12.23,12.56-24.52,25.08-36.91,37.49-5.81,5.82-11.9,11.35-18.79,17.88-.58-23.79,5.21-44.56,19.55-62.7ZM571.22,278.94c-16.27-.08-32.55-.13-48.82.03-4.94.05-5.22-2.75-5.21-6.5.07-27.12.04-54.23.04-81.35,11.36,22.57,30.36,31.58,54.25,32.56,3.36.14,4.33,1.86,4.31,4.98-.08,15.24-.08,30.48,0,45.72.02,3.31-1.27,4.58-4.57,4.57ZM518.14,161.9c28.13-4.44,55.44,18.05,55.74,45.63-16.74-17.72-41.39-24.67-55.74-45.63ZM573.37,217.21c-2.35,4.89-10.23.97-15.43-.18-22.73-5.04-34.52-18.57-38.81-45.29,14.11,13.89,30.67,21.61,44.6,32.96,4.28,3.49,11.8,8.03,9.65,12.51ZM587.21,279.08c-5.57.06-6.9-1.89-6.82-7.17.27-18.58.27-37.16-.02-55.74-.56-36.14-20.39-57.28-56.32-59.87-5.37-.39-7.31-1.96-6.9-7.33.41-5.39.11-10.83.1-16.25q-.01-16.9,14.94-28.86c.92,12.22,2.63,23.43,8.01,33.64,10.09,19.16,27.58,26.24,47.77,28.11,5.24.49,6.98,1.82,6.94,7.22-.23,33.03-.28,66.07.01,99.1.06,6.22-2.36,7.09-7.73,7.15ZM579.89,144.21c4.76,3.57,9.32,7.37,12.68,12.32,1.22,1.8,2.98,4.09-1.53,4.6-25.14,2.85-50.82-19.5-52.11-46.63,13.07,12.16,27.79,19.84,40.95,29.71ZM539.47,104.34c2.27-4.73,10.66-.73,16.06.55,22.73,5.4,35.14,19.78,38,44.55-13.96-13.2-30.11-21.02-43.88-32.13-4.48-3.62-12.43-8.3-10.18-12.97ZM611.26,222.69c0,16.54-.08,33.08.05,49.61.03,4.14-.33,6.81-5.68,6.75-4.92-.06-6.13-1.98-6.11-6.48.12-33.59.12-67.19,0-100.78-.01-4.31,1.39-5.83,5.81-5.92,4.97-.1,6.07,1.89,6.01,6.43-.21,16.79-.08,33.59-.08,50.39ZM605.24,161.43c-5.99-.07-5.74-3.35-6-7.41-2.14-33.1-20.95-52.63-53.88-56.07-1.97-.21-3.94-.35-7.66-.68,13.44-13.69,25.81-26.3,38.21-38.9.84-.86,1.5-1.76,3.12-.69,5.09,3.33,7.2,10.3,4.55,15.99-9.31,19.98.49,38.8,20.24,39.74,15.76.75,33.79-17.4,22.3-37.69-3.55-6.27-2.42-9.46,2.14-14.24,3.73-3.9,5.24-3.57,8.69-.13,11.49,11.44,23.34,22.53,35.05,33.75-.49.75-.98,1.51-1.47,2.26-3.05.42-6.11.78-9.14,1.28-31.03,5.14-47.76,23.54-49.8,54.94-.28,4.31.09,7.92-6.34,7.84ZM688.1,278.93c-16-.1-32-.07-48.01.01-3.57.02-5.09-1.36-5.06-5.03.11-14.97.2-29.94-.02-44.91-.08-5.65,3.53-5.16,7.19-5.45,17.66-1.42,33.3-7.03,44.12-22.08,2.17-3.01,3.85-6.37,6.86-11.41,0,29.43-.02,56.66.03,83.88,0,3.62-1.49,5-5.12,4.98ZM638.18,213.95c3.26-4.75,7.7-8.32,12.24-11.75,13.34-10.08,28.58-17.48,41.03-30.12-3.36,33.82-26.22,45.12-50.98,46.87-5.23.37-4.22-2.17-2.28-5ZM637.2,207.39c-.46-26.72,25.9-48.65,55.87-45.79-14.74,21.34-39.23,28.32-55.87,45.79ZM692.51,153.01c-3.24,6.93-12.89,3.21-19.58,5.02-26.8,7.25-41.95,27.5-42.51,59.12-.32,18.06-.24,36.13.02,54.19.08,5.36-.81,7.93-7.08,7.78-5.59-.13-7.58-1.35-7.52-7.33.3-33.03.16-66.07.18-99.1,0-3.31-.69-6.58,4.63-6.91,34.24-2.14,54.78-19.6,58.15-60.84,9.23,7.38,16.6,14.11,14.59,26.7-1.13,7.05,1.9,15.43-.88,21.38Z"/>
  <g>
    <path class="cls-1" d="M234.01,444.09c-.55-1.09-1.09-2.18-1.64-3.82-.55-1.64.54-4.36,2.73-5.45,1.09-1.09,2.18-1.09,4.91-.55,4.36.55,13.09-.54,32.18-3.82,7.64-1.09,18.54-3.27,24-3.82l9.27-1.64,4.36-8.73c2.73-4.36,9.82-19.09,16.91-31.64,19.09-37.09,26.18-49.09,37.09-68.18,17.45-29.45,35.45-53.45,43.64-57.82,3.82-2.18,6.55-1.64,8.18,2.73.55,2.73,0,13.09-1.64,24-6.55,38.18-15.82,109.63-15.82,109.63,0,0,2.73-.54,6-1.64,12-3.82,16.36-4.36,19.64-1.09,1.09,1.64,1.09,2.73,0,4.36-1.09,1.64-3.27,2.18-15.27,4.36-5.45,1.09-10.36,2.18-10.91,2.73-1.09,0-1.09,1.09-1.09,4.91-.54,2.18-2.73,20.18-4.91,39.82-6,48-7.09,59.45-8.18,75.82-2.18,18.54-2.73,20.73-6,22.91-1.64,1.64-4.91,1.64-6.55,0-2.18-1.09-2.73-3.82-2.73-7.09,0-3.82,0-8.73,5.45-34.36,3.82-21.82,7.09-37.64,8.73-50.18,1.64-10.91,7.64-50.18,7.64-50.18,0,0-17.45,4.36-31.64,8.73-19.64,6-30,8.73-40.36,10.91-2.18,0-4.36.55-4.91.55-.55.55-1.64,1.64-10.91,22.91-6,13.64-11.45,25.64-20.73,47.45-2.73,7.09-5.45,13.64-6,14.18-2.18,4.36-5.45,5.45-8.73,4.36-2.18-1.09-3.27-2.73-3.27-6,0-1.64,2.18-4.91,13.09-27.82,7.09-14.18,16.36-31.64,20.18-39.27,3.82-7.64,7.09-13.64,7.09-13.64-.55-.55-9.82,1.64-33.82,6-25.09,4.91-24,4.91-25.09,6-2.18,2.73-7.09,3.27-9.27,1.09l-1.64,3.27ZM313.1,422.82s1.09,0,7.09-1.64c11.45-2.73,25.64-7.09,42.55-12.55,7.09-2.73,26.18-9.82,26.73-9.82s1.64-4.91,2.73-10.91c.55-4.91,3.27-20.18,5.45-32.73,3.27-20.18,5.45-29.45,10.91-61.63,2.73-13.64,3.27-17.45,3.27-23.45.54-6,0-8.73-1.09-8.73s-7.64,6.55-11.45,11.45c-16.91,22.91-43.64,68.18-70.91,121.63"/>
    <path class="cls-1" d="M607.09,465.9c1.64-1.09,2.73,1.09,0,3.27-6,4.36-44.73,31.64-54,39.27-13.09,10.36-19.64,14.73-26.18,18.55-9.82,4.91-16.36,5.45-20.73,1.09-4.36-4.36-5.45-11.45-1.64-23.45,3.82-13.64,10.91-27.82,28.91-57.27,11.45-19.64,17.45-30,15.82-30.55,0,0-.54,0-2.18.55-9.27,3.82-25.64,17.45-44.73,36.54-8.73,8.73-14.18,14.18-24.55,26.18-9.82,12-12,13.09-14.18,12.55-1.64,0-2.18-1.64-3.82-5.45-.55-1.64-1.09-3.82-1.64-4.91-1.09-2.18-4.91-.55-9.82,3.27-4.91,3.27-6,5.45-7.09,9.82-5.45,14.73-12.55,26.73-19.09,31.09-3.27,2.73-7.09,1.09-7.09-2.73,0-1.64,1.64-6,6.55-13.09,4.36-6.55,10.36-21.82,12.55-32.73,1.64-8.73,3.27-21.27,1.64-24v-.55l-.55.55v-4.36c.55-.54,1.09-.54,1.09-.54,0-1.09,3.27-2.18,4.91-2.18,5.45,0,8.73,6.55,7.09,18.54,0,4.36-.55,8.73-2.18,16.36-.54.55,0,.55,2.18-1.09,3.27-2.18,6-3.27,8.73-3.27,3.27,0,4.91,2.18,6.55,8.18.55,3.27,1.09,4.36,2.18,4.36.54,0,6.55-6,18-19.09,19.09-21.82,31.09-34.36,44.73-45.27,9.27-8.18,17.45-13.09,22.36-14.73q2.18-.55,3.82.55c2.18,1.09,3.27,3.27,3.27,6.54,0,7.64-3.82,16.36-22.36,52.36-16.91,32.73-22.36,45.27-22.36,51.27,0,1.09.55,2.18.55,2.18.54,1.09,4.36,1.09,6.54,0,8.18-1.64,24-11.45,43.09-25.64,13.09-9.27,45.27-31.09,45.27-31.09l-1.64-1.09Z"/>
    <path class="cls-1" d="M721.2,447.78c-5.32,2.06-11.37,4.46-18.11,7.21-9.82,4.36-25.64,10.91-31.64,13.64-2.18,1.09-4.36,1.64-4.36,1.64,0,0,1.64-1.09,2.18-3.27,3.27-4.36,6-10.36,6.55-13.09,1.64-5.45,0-10.36-3.27-12-3.27-1.64-8.73-2.18-15.27-1.09-14.18,3.27-36,13.09-52.36,24-1.56,1.17-2.83,1.78-3.23,2.03.4-1.22,4.59-9.09,9.78-18.94,17.35-32.77,30.45-57.9,45.68-88.14.65-1.3-.04-2.89-1.44-3.27-.02,0-.04-.01-.06-.02-1.96-.53-4.02.38-4.96,2.17-.39.76-.74,1.42-1.04,1.99-7.09,12.55-15.27,27.27-27.82,46.36-4.36,7.64-9.82,17.45-12,21.27l-4.36,7.64-6,9.27c.55,0-14.73,24-21.27,32.73-7.09,10.91-7.64,11.45-8.18,13.64-1.09,4.36,3.27,9.27,8.18,8.18,3.82-.55,7.09-4.36,13.09-15.27,2.18-3.82,4.36-7.09,6-8.18,2.18-2.18,10.91-8.73,18-13.09,14.18-8.18,35.45-16.91,46.36-18.54,5.45-1.09,7.64-1.09,9.82.54q1.09,2.18,1.09,3.82c0,4.91-3.82,13.64-11.45,22.36l-2.73,3.27-13.09,6.55c-18,9.27-30.55,15.82-43.64,23.45-16.36,10.36-30,21.27-33.27,26.18-3.27,4.91,0,9.27,6,8.18,5.45-1.09,19.64-8.18,30.54-15.27,18.54-10.36,33.82-22.36,46.91-36,6.55-6,4.91-4.91,21.82-12.55,10.31-4.62,30.56-12.25,46.45-17.91.55-3.13.93-6.29,1.12-9.48ZM641.45,490.99c-2.73,2.18-12.55,9.82-17.45,13.09h-.55c-12,8.73-27.82,18-39.82,23.45-1.64.55-3.82,1.64-3.82,1.64,0,0,3.27-3.27,8.18-6.55,8.73-6.54,20.18-14.18,33.27-21.27,8.73-5.45,21.82-12,20.18-10.36Z"/>
    <path class="cls-1" d="M839.5,514.56c-3.1-21.97,16.54-54.53,17.89-65.52-.07-.52.11-1.07.04-1.59-.99-6.98-15.64-4.38-22.72-7.86-1.48-1.11-2.54-3.07-2.91-5.65-.66-4.65.83-10.92,4.49-16.71,1.33-1.77,3.29-2.84,5.36-3.13,4.39-.62,9.22,1.86,9.92,6.77.33,2.33-.08,5.02-2.27,8.23,9.48,1.82,18.71,3.68,20.1,13.5.22,1.55.44,3.1.18,4.98-.38,8.49-27.12,46.79-23.98,69.02l.22,1.55c1.32,5.61,4.78,9.6,11.2,10.28,1.07.11,2.4.19,3.69,0,30.24-4.27,92.78-93.24,111.33-107.46,1.66-1.29,3.36-2.32,5.03-3.61.59.44.92.92,1.21,1.14-.89,1.18-1.74,2.62-2.96,3.32-28.75,24.09-82.61,105.5-115.17,110.11-1.29.18-2.33.33-3.4.22-8.75-.35-12.51-4.56-15.12-9.99-1.1-2.22-1.73-4.76-2.13-7.6Z"/>
    <path class="cls-1" d="M845.66,435.23c-1.53,4.22,3.31,4.58-30.51,24.07-25.28,14.57-39.77,23.24-45.91,20.55-7.29-3.45-8.64-6.74-4.03-20.18l2.69-7.67-8.44,6.91c-10.36,8.44-28.01,20.34-36.46,24.18-7.67,3.84-13.81,4.6-17.65,1.92-1.54-1.15-3.45-3.07-3.84-3.84-4.22-8.44,10.75-29.16,31.47-44.9,7.29-5.37,10.74-6.91,15.73-6.91,7.29,0,13.81,3.84,19.19,10.75.77,1.53,1.15,1.53,2.69.38,1.53-1.54,3.45-1.92,5.76-.77,2.3,1.53,1.92,5.37-2.3,16.5-1.92,5.37-3.59,11.25-3.84,13.82-.2,2.04-.5,5.17,1.17,5.82,1.13.44,4.29.64,7.18-.58,13-4.12,48.81-26.35,55.4-32.16,4.16-3.24,8.52-5.96,10.44-4.43,1.15.77,1.66-4.98,1.28-3.45ZM756,438.56c-5.37-3.84-11.9-1.92-22.64,6.91-13.43,10.74-24.94,24.94-24.94,30.7,0,3.84.77,3.84,6.91,1.92,8.44-2.69,42.98-25.71,46.05-30.32,1.15-1.92-1.54-6.91-5.37-9.21Z"/>
  </g>
  <g>
    <path class="cls-1" d="M447.7,600.11c0,7-5.08,11.23-13.44,11.23h-8.83v10.38h-3.47v-32.89h12.31c8.36,0,13.44,4.23,13.44,11.28ZM444.22,600.11c0-5.26-3.48-8.27-10.06-8.27h-8.74v16.44h8.74c6.58,0,10.06-3.01,10.06-8.18Z"/>
    <path class="cls-1" d="M485.63,605.27c0-9.59,7.33-16.73,17.29-16.73s17.24,7.09,17.24,16.73-7.38,16.73-17.24,16.73-17.29-7.14-17.29-16.73ZM516.69,605.27c0-7.85-5.87-13.63-13.77-13.63s-13.86,5.78-13.86,13.63,5.92,13.62,13.86,13.62,13.77-5.78,13.77-13.62Z"/>
    <path class="cls-1" d="M557.67,617.72l1.36-2.68c2.35,2.3,6.53,3.99,10.85,3.99,6.15,0,8.83-2.58,8.83-5.82,0-9.02-20.25-3.48-20.25-15.65,0-4.84,3.76-9.02,12.12-9.02,3.71,0,7.56,1.08,10.2,2.91l-1.18,2.77c-2.82-1.83-6.11-2.72-9.02-2.72-6.01,0-8.69,2.68-8.69,5.97,0,9.02,20.25,3.57,20.25,15.55,0,4.84-3.85,8.97-12.26,8.97-4.93,0-9.77-1.74-12.22-4.28Z"/>
    <path class="cls-1" d="M643.2,612.93h-18.32l-3.95,8.79h-3.62l15.03-32.89h3.43l15.03,32.89h-3.66l-3.95-8.79ZM641.93,610.11l-7.89-17.67-7.89,17.67h15.79Z"/>
    <path class="cls-1" d="M689.13,588.83h13.39c10.52,0,17.62,6.77,17.62,16.44s-7.09,16.44-17.62,16.44h-13.39v-32.89ZM702.33,618.71c8.74,0,14.38-5.54,14.38-13.44s-5.64-13.44-14.38-13.44h-9.73v26.87h9.73Z"/>
    <path class="cls-1" d="M780.95,612.93h-18.32l-3.95,8.79h-3.62l15.03-32.89h3.43l15.03,32.89h-3.66l-3.95-8.79ZM779.68,610.11l-7.89-17.67-7.89,17.67h15.79Z"/>
  </g>
</svg>