<?xml version="1.0" encoding="UTF-8"?>
<svg id="Capa_1" data-name="Capa 1" xmlns="http://www.w3.org/2000/svg" viewBox="0 0 20 20">
  <defs>
    <style>
      .cls-1 {
        fill: #956852;
        stroke-width: 0px;
      }
    </style>
  </defs>
  <path class="cls-1" d="m16.48,10.38c0-1.43.08-2.85-.07-4.28-.32-3.05-3.03-5.61-6.06-5.71-3.78-.13-6.81,2.78-6.84,6.58-.01,1.97,0,3.94,0,5.91,0,2.06.01,4.12,0,6.18,0,.42.09.56.54.55,3.98-.02,7.95-.02,11.93,0,.45,0,.54-.15.53-.56-.02-2.89,0-5.78-.01-8.67Zm-1.31-6.8c.7,1.18,1.01,2.45.97,3.77-1.05-.99-2.1-1.98-3.14-2.98-.24-.22-.44-.48-.68-.7-.21-.19-.31-.38-.21-.66.11-.3.35-.2.55-.21.36-.01.73.04,1.08-.01.7-.11,1.1.21,1.43.78Zm-1.06,4.22c-.52.41-1.08.79-1.63,1.16-.53.36-1.07.72-1.61,1.22.13-1.72,1.17-2.83,2.88-3.14.3-.06.77-.28.9-.03.14.3-.28.58-.54.79Zm.56-.07c-.13,2.06-1.99,3.56-3.91,3.21.97-1.47,2.7-1.94,3.91-3.21Zm-.38-5.25c-.72,0-1.28,0-1.83,0-.15,0-.31,0-.34-.18-.09-.51-.37-.92-.76-1.4,1.15.24,2.03.76,2.93,1.58Zm-2.96-1.06c.67.72.64,1.87-.05,2.55-.19.19-.29.19-.44-.04-.26-.41-.56-.8-.88-1.25-.3.41-.58.76-.81,1.14-.17.27-.28.32-.51.06-.66-.76-.59-1.88.18-2.58.74-.68,1.83-.62,2.52.13Zm-2.01,3.29c.43.17.88.17,1.32.02.12-.04.24-.11.33.05.27.53.59,1.04.3,1.67-.26.56-.69.86-1.19.89-1.1,0-1.8-.98-1.46-1.9.07-.18.17-.36.24-.54.09-.21.21-.29.46-.19Zm.05-.66c.18-.25.35-.49.57-.81.18.24.33.42.44.62.09.16.35.3.21.5-.11.15-.35.16-.55.15-.18,0-.35-.04-.53-.07-.24-.05-.29-.17-.15-.38Zm-.61-3.22c-.49.48-.77.93-.88,1.46-.03.16-.15.18-.28.18-.57,0-1.14,0-1.85,0,.88-.87,1.81-1.34,3.01-1.65Zm-3.53,2.21c.08-.1.16-.22.29-.22.72,0,1.44-.03,2.16,0,.28.01.32.47.07.73-.86.88-1.72,1.75-2.58,2.62-.41.41-.83.79-1.31,1.25-.04-1.66.36-3.12,1.37-4.39Zm2.4,16.22c-1.14,0-2.28,0-3.42,0-.35,0-.37-.19-.36-.45,0-1.9,0-3.79,0-5.69.79,1.58,2.12,2.21,3.8,2.28.23,0,.3.13.3.35,0,1.07,0,2.13,0,3.2,0,.23-.09.32-.32.32Zm-3.71-8.19c1.97-.31,3.88,1.26,3.9,3.19-1.17-1.24-2.9-1.73-3.9-3.19Zm3.86,3.87c-.16.34-.72.07-1.08-.01-1.59-.35-2.42-1.3-2.72-3.17.99.97,2.15,1.51,3.12,2.31.3.24.83.56.67.88Zm.97,4.33c-.39,0-.48-.13-.48-.5.02-1.3.02-2.6,0-3.9-.04-2.53-1.43-4.01-3.94-4.19-.38-.03-.51-.14-.48-.51.03-.38,0-.76,0-1.14q0-1.18,1.05-2.02c.06.86.18,1.64.56,2.35.71,1.34,1.93,1.84,3.34,1.97.37.03.49.13.49.5-.02,2.31-.02,4.62,0,6.93,0,.44-.17.5-.54.5Zm-.51-9.44c.33.25.65.52.89.86.09.13.21.29-.11.32-1.76.2-3.56-1.36-3.65-3.26.91.85,1.94,1.39,2.86,2.08Zm-2.83-2.79c.16-.33.75-.05,1.12.04,1.59.38,2.46,1.38,2.66,3.12-.98-.92-2.11-1.47-3.07-2.25-.31-.25-.87-.58-.71-.91Zm5.02,8.28c0,1.16,0,2.31,0,3.47,0,.29-.02.48-.4.47-.34,0-.43-.14-.43-.45,0-2.35,0-4.7,0-7.05,0-.3.1-.41.41-.41.35,0,.42.13.42.45-.01,1.17,0,2.35,0,3.53Zm-.42-4.29c-.42,0-.4-.23-.42-.52-.15-2.32-1.47-3.68-3.77-3.92-.14-.01-.28-.02-.54-.05.94-.96,1.81-1.84,2.67-2.72.06-.06.1-.12.22-.05.36.23.5.72.32,1.12-.65,1.4.03,2.71,1.42,2.78,1.1.05,2.36-1.22,1.56-2.64-.25-.44-.17-.66.15-1,.26-.27.37-.25.61,0,.8.8,1.63,1.58,2.45,2.36-.03.05-.07.11-.1.16-.21.03-.43.05-.64.09-2.17.36-3.34,1.65-3.48,3.84-.02.3,0,.55-.44.55Zm5.8,8.22c-1.12,0-2.24,0-3.36,0-.25,0-.36-.1-.35-.35,0-1.05.01-2.09,0-3.14,0-.4.25-.36.5-.38,1.24-.1,2.33-.49,3.09-1.54.15-.21.27-.45.48-.8,0,2.06,0,3.96,0,5.87,0,.25-.1.35-.36.35Zm-3.49-4.55c.23-.33.54-.58.86-.82.93-.71,2-1.22,2.87-2.11-.24,2.37-1.83,3.16-3.57,3.28-.37.03-.3-.15-.16-.35Zm-.07-.46c-.03-1.87,1.81-3.4,3.91-3.2-1.03,1.49-2.74,1.98-3.91,3.2Zm3.87-3.8c-.23.48-.9.22-1.37.35-1.87.51-2.93,1.92-2.97,4.14-.02,1.26-.02,2.53,0,3.79,0,.38-.06.55-.5.54-.39,0-.53-.09-.53-.51.02-2.31.01-4.62.01-6.93,0-.23-.05-.46.32-.48,2.4-.15,3.83-1.37,4.07-4.26.65.52,1.16.99,1.02,1.87-.08.49.13,1.08-.06,1.5Z"/>
</svg>