<?xml version="1.0" encoding="UTF-8"?>
<svg id="Capa_1" data-name="Capa 1" xmlns="http://www.w3.org/2000/svg" viewBox="0 0 50 64">
  <defs>
    <style>
      .cls-1 {
        fill: #956852;
        stroke-width: 0px;
      }
    </style>
  </defs>
  <path class="cls-1" d="M46.74,30.12c-8.05-.03-13.84,4.71-15.25,12.65-.93,5.28-.26,10.6-.53,15.9-.05,1.05.58,2.68-1.42,2.68-1.96,0-1.45-1.6-1.45-2.68-.04-7.49.06-14.97-.09-22.46-.04-2.28.97-2.79,2.92-3.1,8.65-1.38,12.73-6.15,13.3-14.93.16-2.45-.82-2.83-2.91-2.77-8.25.26-13.5,4.81-14.9,13-.18,1.08.3,2.9-1.31,2.95-1.98.05-1.32-1.92-1.5-3.08-1.23-7.98-7.29-13.01-15.41-12.89-1.93.03-2.52.65-2.45,2.53.33,8.78,4.67,13.87,13.44,15.17,2.37.35,2.87,1.36,2.84,3.52-.11,7.24-.02,14.49-.07,21.73,0,1.15.69,3.01-1.5,2.98-2.16-.04-1.41-1.88-1.44-3.03-.13-5.18.32-10.39-.48-15.55-1.42-9.11-8.13-12.32-15.62-12.6-1.33-.05-1.89.4-2.04,1.81-.67,6.09,3.21,12.52,8.77,14.94,2.37,1.03,6-.14,7.04,2.47.96,2.4.24,5.47.27,8.25,0,1.09.13,2.19,0,3.26-.34,2.97,1.7,2.54,3.49,2.56,1.84.02,3.62.35,3.45-2.61-.23-4.09-.06-8.21-.06-12.31,0-3.86-.07-7.73.04-11.59.03-1.14-.79-3.18,1.17-3.16,1.62.01.94,1.93.95,2.99.07,7.85.18,15.7-.03,23.54-.08,3.07,1.37,3.19,3.73,3.19,2.28,0,3.64-.26,3.41-3.06-.24-2.88.11-5.8-.1-8.68-.18-2.52.58-3.45,3.22-3.89,8.49-1.42,12.97-6.95,12.95-15.22,0-1.83-.47-2.51-2.44-2.52ZM42.04,17.6c-3.89,4.51-8.9,6.48-12.99,9.94.58-6.17,4.92-9.6,12.99-9.94ZM41.29,21.37c-.57,6.2-5.72,10.18-12.87,9.76,3.72-4.35,8.69-6.37,12.87-9.76ZM21.16,27.69c-4.48-3.72-9.38-5.64-12.86-9.84,6.81-.49,11.28,2.79,12.86,9.84ZM8.57,21.26c4.4,3.39,9.13,5.63,13.3,10.01-7.65-.01-11.92-3.29-13.3-10.01ZM16.16,42.37c-4.31-3.45-9.2-5.52-12.97-9.79,7.05-.45,11.65,3.05,12.97,9.79ZM3.4,35.81c4.39,3.65,9.31,5.64,12.83,9.68-5.76,1.48-10.94-2.28-12.83-9.68ZM33.46,45.94c3.81-4.45,8.73-6.39,12.7-9.73-.25,5.92-5.29,9.96-12.7,9.73ZM33.86,42.51c1.42-6.86,5.58-10.06,13.09-10.1-3.68,4.44-8.68,6.39-13.09,10.1Z"/>
  <path class="cls-1" d="M31.23,11.26c-1.12-3.34-3.26-6.1-5.33-8.9-.98-1.32-1.6-1-2.37.1-1.85,2.65-3.87,5.21-5.05,8.26-1.8,4.67,1.24,9.22,6.18,9.32,4.77.09,8.09-4.25,6.57-8.78ZM24.72,18.04c-2.86-.04-5.1-2.37-4.72-5.14.41-2.95,2.37-5.17,3.97-7.54.36-.54.82-.72,1.48-.24,1.07.78,4.12,6.73,4.12,8.24,0,2.65-2.15,4.72-4.86,4.68Z"/>
</svg>