<?xml version="1.0" encoding="UTF-8"?>
<svg id="Capa_1" data-name="Capa 1" xmlns="http://www.w3.org/2000/svg" viewBox="0 0 50 64">
  <defs>
    <style>
      .cls-1 {
        fill: #956852;
        stroke-width: 0px;
      }
    </style>
  </defs>
  <path class="cls-1" d="M31.06,63.5c-3.16-4.3-2.8-9.93-5.8-14.47-2.64,4.52-2.78,9.78-5.44,14.04-1.85-.59-1-1.71-.69-2.63,1.17-3.45,2.09-7.03,3.65-10.3,1.71-3.61.49-6.78-.36-10.18-.5-1.98-1.94-1.59-3.16-1.72-3.89-.43-7.77-.79-11.59-1.83-3.82-1.04-3.33-3.79-3.41-6.67-.08-2.92,1.91-3.2,3.85-3.76.78-.22,1.62-.31,2.34-.66,1.79-.86,4.79-.12,5.4-1.88.68-1.97-2.09-3.11-3.3-4.66-1.78-2.26-.69-3.66,1.58-4.65,2.21-.97,4.91.18,6.94-1.67.51-.46,1.17.15.9.69-.82,1.62,2.65,2.76.33,4.58-1.36,1.06-2.41,2.54-3.47,3.94-1.11,1.47-.8,2.41,1.19,2.7,5.19.75,5.8-.04,6.56-5.23.69-4.7,3.01-9.1,2.17-14.12-.29-1.69,1.44-2,2.88-2.03,1.55-.04,2.33.76,2.07,2.25-1.07,6.2,4.07,11.25,3.1,17.48-.33,2.15,2.07,1.73,3.31,2.08,5.15,1.48,6.27,3.37,4.81,8.54-.33,1.15-.95,1.9-2.13,2.17-3.29.75-6.54,1.7-9.87,2.21-5.04.78-7.76,5.39-5.78,10.35,1.98,4.96,3.46,10.05,3.91,15.42ZM43.54,28.16c-2.88-.64-5.18-3.87-7.78.67-1.43,2.5-8.43,2.39-8.98.12-.98-4.06-3.61-2.46-6.13-2.67.06,1.29,2.12,2.24.63,3.24-2,1.35-4.27,1.33-6.6.69-2.29-.62-1.08-2.38-.91-3.98-2.31.65-4.12,1.13-5.92,1.68-.46.14-.86.46-1.35.73,5.42,5.13,30.63,4.93,37.03-.48ZM24.2,37.11c5.69-.5,11.41-1.39,17.01-2.96.95-.27,2.6,0,2.32-1.56-.39-2.24-1.95-.63-2.86-.44-10.69,2.2-21.4,2.65-32.15.47-.93-.19-2.13-1.54-2.7.15-.6,1.78,1.21,1.82,2.24,2.13,5.23,1.53,10.67,1.6,16.14,2.22ZM32.58,16.92c4.25-.18.95-2.51.43-3.77-.73-1.75.66-5.28-1.72-5.07-3.06.28-.73,3.88-1.63,5.76-1.41,2.94.37,3.09,2.92,3.08ZM13.19,17.18c2.85.48,5.29.94,7.55-.83-2.29,1.32-5.12-3.66-7.55.83ZM34.84,27.3c-1.89-.27-3.69.27-5.49-.16-.53-.13-1.08-.21-1.22.48-.12.56.12,1.13.72,1.19,2.14.21,4.37.69,5.99-1.52Z"/>
</svg>