<?xml version="1.0" encoding="UTF-8"?>
<svg id="Capa_1" data-name="Capa 1" xmlns="http://www.w3.org/2000/svg" viewBox="0 0 50 64">
  <defs>
    <style>
      .cls-1 {
        fill: #956852;
        stroke-width: 0px;
      }
    </style>
  </defs>
  <g>
    <path class="cls-1" d="M8.48,13.09c1.35-2.49,3.42-4.95,5.99-6.98,1.24-1,2.78-2,4.4-2.68,1.62-.7,3.35-1.17,5.1-1.37,3.3-.39,6.91.13,9.96,1.78.88.5,1.53,1.03,1.05.87-.49-.15-.85-.23-1.16-.26-.32-.01-.6-.02-.93-.04-.66-.02-1.52-.16-3.34-.33-1.23-.1-2.35-.02-3.4.17-1.04.17-2.01.47-2.94.82-1.86.73-3.63,1.72-5.5,3.25-.18.15-.37.35-.48.42-1.47.95-2.72,2.17-3.84,3.47-1.12,1.3-2.11,2.68-3.13,4.09-.37.49-.83,1.29-1,1.88-.31,1.01-.64,1.99-.92,2.98-.3.99-.6,2.03-.86,3.08v-.04c-.27,3.02-.5,6.27-.56,9.9-.03,1.42.17,3.14.37,4.52.29,2.01.42,4.17.51,6.39.09,2.53.99,4.61,1.77,5.76.85,1.34,1.57,2.3,2.33,3.16.35.46.77.82,1.16,1.24.2.2.44.36.66.55.23.18.45.37.72.52.25.15.48.32.72.49.25.16.52.28.84.38,1.47.45,2.89.72,4.57,1.06h-.02s.46.02.46.02h-.03c1.47.29,3.29.26,5.07-.09,1.8-.34,3.48-1.01,4.96-1.75.36-.16,1.21-.77,1.4-.94.68-.73,1.71-1.54,2.64-2.55.95-.97,1.85-2.07,2.41-3.09.24-.39,1.37-1.78,1.98-2.81l-.02.02c.17-.5.23-.91.76-1.92l-.02.02c.2-.24.26-.54.36-.83v.04s-.07-.02-.07-.02l.02-.03c.57-2.47,1.52-5.15,2.06-7.16.58-2.11.58-4,.41-5.08-.34-2.42-.68-5.17-1.31-7.31-.64-2.16-1.43-3.24-2.45-4.42-.28-.33-.75-.77-.91-.98-1.23-1.65-3.06-2.99-5.03-3.73-1.95-.76-4.02-.89-5.95-.78-.65.02-1.36.25-1.84.49-1.86.97-3.45,2.08-4.72,3.75-.71.95-1.22,2.28-1.36,3.59-.14,1.25-.21,2.51-.28,3.75-.1,1.69.09,3.59.38,5.55.28,1.96.61,3.97.68,5.83.07,1.68.38,3.03.41,4.44,0,.25,0,.5,0,.78,0,.14-.02.28-.02.42v.11s0,.04,0,.04c0,.11-.02.22-.05.34-.03.06.03.05.07.07l.12.04c.08.02.17.05.26.07.03,0,.04.01.08.02h.24c.17.03.34.02.5.02.33,0,.65-.02.94-.06,1.19-.11,1.99-.53,2.37-.59.09-.01-.03.15-.21.3-.43.36-.92.65-1.44.87-.52.23-1.08.39-1.66.49-.27.06-.6.09-.84.12-.23.03-.47.05-.72.06-.25,0-.52,0-.79,0l-.42-.03-.22-.03s0-.11-.01-.16c.02-.41.02-.86.02-1.36-.02-.5-.04-1.07-.1-1.61-.11-1.08-.29-2.16-.52-3.27-.6-2.84-1.56-5.5-2.3-8.12-.5-1.8-.9-3.93-.84-6.42.03-1.24.19-2.57.57-3.94.38-1.37.99-2.79,1.91-4.09.83-1.17,1.77-2.1,2.81-2.89,1.04-.8,2.18-1.47,3.55-2.04,1.31-.56,2.98-.93,4.73-.96,1.75-.04,3.57.24,5.21.78h-.03c.49.2,1.27.58,1.4.64,1.63.54,3.06,1.45,4.19,2.45,1.13,1,1.97,2.07,2.59,2.97.97,1.43,1.67,2.62,2.26,3.68.59,1.07,1.08,2.02,1.48,3,1.56,3.8,1.7,7.86,1.07,11.72-.11.68-.25,1.3-.29,1.92-.28,3.53-1.46,6.87-3.1,9.93-.14.26-.31.54-.42.77-2.41,5.02-6.22,8.86-10.99,11.37-2.17,1.14-4.38,1.79-6.55,2.15-2.18.35-4.35.44-6.65.27-2.66-.16-5.72-1.25-8.31-3.21-1.27-1.02-2.43-2.21-3.33-3.56-.91-1.33-1.56-2.75-2.03-4.11-.67-1.97-1.02-3.59-1.3-5.08-.27-1.49-.47-2.85-.62-4.32-.18-1.76-.26-3.32-.2-5.01.11-2.7.05-5.34.21-8.22.18-3.3.85-6.33,1.9-8.7.82-1.86,1.94-4.36,3.45-6.71l-.02.04Z"/>
    <path class="cls-1" d="M28.39,32.9c.54-.37,1.29-.33,1.79-.05.24.13.46.29.66.44.06.04.09.12.04.16-.2.15-.27.41-.59.49-.43.11-.77.37-1.13.54-.02,0-.04.03-.05.03-.23-.11-.42.16-.61.01-.04-.02-.1-.03-.12.01-.07.16-.17.14-.3.13h0c-.06.19-.12.27-.2.34-.03.03.03.11.1.15.1.06.12.06.02.13-.11.09.04.16.14.16.22,0,.1.17.13.31,0,.03-.02.1.02.1.1,0,.17,0,.21.12h0s.02.01.02.01h0c.06.24.34.3.52.5.02.02.1.04.12.02.18-.12.39.06.6-.02.04-.02.16.11.25.16h0c.05-.04.1-.09.18-.05h0s.04.02.07.01h0s0-.03,0-.03h0c.24-.17.42,0,.55.12.14.13.28.11.36.03.18-.16.34-.11.48-.05.14.06.21,0,.28-.09.02-.02.04-.07.05-.06.24.09.31-.24.55-.19.04,0,.06-.02.05-.06-.05-.16-.02-.17.1-.18.06-.01.08-.05.03-.06-.04-.02-.05-.02,0-.04.11-.06.04-.1.05-.28,0-.09-.1,0-.13.01-.05.04-.03.02-.04-.09,0-.05,0-.02-.01-.05-.02-.03-.05-.08-.08-.12-.01-.02-.03-.05-.03-.06-.05-.28.36-.63.87-.58.31.02.64.11.97.33.22.14.4.4.47.72.08.32.02.72-.14,1.03-.14.29-.29.48-.44.76-.15.27-.51.48-.8.63h0c-.06,0-.15.01-.16.02-.23.29-.61.27-.83.24-.34-.06-.51.07-.7.16-.37.18-.73.12-1.04-.03-.05-.03-.1-.06-.16-.04-.31.1-.57-.04-.81-.17-.02-.01-.04-.03-.06-.03-.42,0-.77-.26-1.19-.44-.38-.17-.68-.34-1.15-.41-.59-.11-1.04-.81-1.19-1.41-.12-.44-.25-.73-.29-1.15-.02-.25.02-.49.16-.7.22-.33.4-.64.65-.92.29-.32.66-.45.97-.39.24.04.5-.02.77-.11h0Z"/>
    <path class="cls-1" d="M25.75,28.64c-.41.29-.89.39-1.38.29-.23-.04-.47-.1-.72-.15-.07-.01-.13-.07-.11-.12.12-.22.06-.49.33-.69.37-.27.6-.65,1.03-.88.02-.01.04-.04.05-.04.31.07.61-.21.92-.03.05.03.14.05.19.01.19-.13.38-.08.56,0h0c.27-.12.55-.12.86-.07.12.02.27-.05.4-.11.18-.09.38-.09.56.04.21.14.43.06.57-.01.33-.15.5.08.72.18.05.03.09.1.16.08.16-.04.3-.06.45.05h0s.04,0,.04,0h0c.24.21.63.25.89.45.03.02.12.04.15.02.22-.13.48.07.71.02.05-.01.18.12.27.19h0c.06-.03.11-.08.2-.03h0s.05.02.08.02h0s0-.03,0-.03h0c.28-.15.49.06.63.22.15.17.32.18.44.13.27-.09.5.05.67.18.17.14.31.13.47.13.05,0,.12-.01.14,0,.3.3.84.23,1.09.61.04.06.11.09.18.08.25-.03.44.08.58.28.08.11.2.18.34.2.13.02.24.08.31.17.21.25.55.42.73.7.08.13.23.09.34.12.29.09.67.53.62.76,0,.02-.04.04-.07.04-.49-.05-.94,0-1.41.01-.28,0-.57.05-.84.1-.37.07-.73,0-1.07-.24-.15-.11-.28-.18-.49-.21-.2-.02-.39-.21-.59-.31h0s-.06-.09-.07-.09c-.27.04-.42-.17-.53-.31-.17-.22-.36-.16-.53-.14-.33.05-.57-.09-.81-.27-.04-.03-.08-.07-.13-.06-.29.06-.5-.1-.72-.24-.02-.01-.04-.03-.06-.03-.41-.03-.72-.3-1.09-.42-.33-.12-.62-.22-.97-.08-.41.15-.85-.05-1.25-.17-.28-.09-.48-.01-.7.03-.13.02-.26.03-.38-.03-.2-.1-.4-.07-.61-.05-.25.03-.47-.05-.65-.21-.14-.13-.34-.14-.54-.1h0Z"/>
  </g>
  <path class="cls-1" d="M31.39,33.59c.16-.56.26-.7.29-.44.01.12.02.29.03.43,0,.04,0,.16-.03.26-.09.42-.18.94-.28,1.28-.14.46-.3,1.15-.43,1.56,0,.02-.02.07-.02.07-.01-.17-.15.35-.13,0,0-.06,0-.11-.02-.03-.07.27-.08.14-.08,0h0c-.08.27-.12.27-.16.21-.01-.03-.06.13-.1.28-.06.21-.09.25-.08.03.01-.25-.06-.01-.11.16-.11.39-.07-.02-.08-.16,0-.03.01-.16,0-.11-.04.13-.08.22-.07.05h0s0,0,0,0h0c.02-.34-.05-.25-.05-.52,0-.03-.02-.02-.03.03-.08.33-.08.08-.15.31-.01.05,0-.14,0-.22,0,0,0,0,0,0-.02.09-.05.21-.05.16h0c.01-.08,0-.02-.01,0h0s0,.04-.01.06h0c-.11.43-.1.18-.09-.04.01-.22-.03-.14-.07.02-.09.35-.11.25-.12.12,0-.14-.04-.04-.09.1-.01.04-.03.11-.03.09,0-.3-.16.21-.14-.23,0-.07,0-.06-.03.01-.08.27-.1.23-.09.02,0-.12-.02-.12-.05-.03-.03.09-.05.09-.05,0,0-.25-.07-.15-.06-.45,0-.14-.05.09-.08.15-.07.17-.1-.13-.04-.56,0-.04.02-.11.03-.13.14-.46.29-1.04.44-1.54.09-.3.18-.66.28-1.02.13-.5.22-.7.27-.6.02.05.04.08.09-.05.05-.12.06.03.09.06h0s0,.13,0,.11c.08-.28.07-.02.07.15,0,.27.05.04.1-.12.1-.31.13-.24.14-.02,0,.04,0,.09.02.04.09-.29.1-.12.11.04,0,.01,0,.04,0,.04.09-.16.09.18.13.27.04.08.07.15.19-.23.14-.45.16-.16.2-.04.03.09.09-.07.14-.19.03-.07.06-.1.06,0,0,.17.05.1.09.03.05-.08.06.05.04.38-.02.25,0,.29.05.19h0Z"/>
</svg>