<?xml version="1.0" encoding="UTF-8"?>
<svg id="Capa_1" data-name="Capa 1" xmlns="http://www.w3.org/2000/svg" viewBox="0 0 20 20">
  <defs>
    <style>
      .cls-1 {
        fill: #956852;
        stroke-width: 0px;
      }
    </style>
  </defs>
  <polygon class="cls-1" points="9.82 3.24 9.82 3.24 9.82 3.24 9.82 3.24"/>
  <polygon class="cls-1" points="9.1 6.37 9.11 6.37 9.11 6.37 9.1 6.37"/>
  <path class="cls-1" d="m8.48,19.9c-.17-.07-.22-.23.04-.64.69-1.09,1.45-2.13,2.06-3.27h0s.04-.07.04-.07h0c.43-.73.72-1.53,1.09-2.28.66-1.33,1.14-2.72,1.71-4.1.63-1.53,1.04-3.18,1.45-4.79.12-.48.22-.94.23-1.38.02-.43-.05-.86-.22-1.17-.17-.33-.46-.62-.77-.78-.32-.16-.66-.19-.99-.1-.55.15-1.06.72-1.42,1.38-.37.69-.67,1.44-.87,2.21-.11.4-.19.82-.26,1.23-.07.38-.08.84-.11,1.27,0,.23.01.48.02.72,0,.22.03.52.06.79l-.18.09-.12.07-.11.07s-.05.04-.07.06c-.03.03-.06.06-.08.08l-.05.08c-.04.05-.04.1-.07.14h0s-.02,0-.02,0h-.04c-.07-.05-.18-.06-.29-.09-.07-.01-.14-.03-.21-.07-.08-.04-.19-.09-.29-.19,0,0-.02-.02-.03-.03-.19-.46-.41-.87-.66-1.27-.12-.2-.25-.41-.38-.62-.06-.1-.13-.21-.19-.31-.06-.1-.11-.19-.17-.29-.41-.72-.79-1.45-1.22-2.16-.22-.36-.42-.74-.62-1.12-.05-.1-.1-.18-.14-.26-.02-.03-.05-.09-.07-.1-.01-.02-.03-.03-.04-.05-.06-.06-.14-.11-.21-.1h0c-.08-.04-.18-.05-.27,0-.08.04-.13.14-.13.24,0,.05,0,.1,0,.15v.13c.02.05.02.1.03.16,0,.05.02.1.03.15l.05.19.09.39c.11.52.23,1.04.37,1.55.78,2.87,1.88,5.69,3.7,8,.69.88,1.53,1.64,2.41,2.31h0c.68.53.9,1.07,1.17,1.57.29.56-.02.63-.74.21-1.35-.8-2.61-1.84-3.61-3.09-.91-1.14-1.6-2.42-2.24-3.71-.33-.66-.6-1.34-.85-2.03h0s0-.06-.03-.07h0c-.27-.98-.66-1.92-.94-2.89-.15-.52-.27-1.04-.36-1.58-.03-.19-.1-.38-.18-.63-.04-.14-.07-.28-.09-.42,0-.08-.02-.13-.02-.23,0-.1,0-.19,0-.28.04-.58.31-1.12.8-1.35.12-.06.25-.1.38-.11.13-.03.27-.02.4,0,.27.04.52.16.74.33.11.09.21.19.3.3.05.06.09.12.13.17l.06.09.04.07c.05.09.11.18.15.26l.12.23.5.9.47.84h0c.13.38.4.69.6,1.03.06.1.12.21.18.31l.08.15c.05.08.11.19.16.23.03.02.05.04.08.07.06.09.13.25.25.55.02.04,0-.03,0-.05h0s0,0,0,0h0s0-.04,0-.04l-.02-.08v-.04s0,.06.02.09c.01,0,0-.12-.02-.23l-.05-.33s.02,0,.03,0h.01s0,0,0,0h0s0,0,0,0h0s0-.01,0,0v-.35s-.01-.04-.01-.04v-.12c.02-.1.04-.19.06-.28.03-.19.08-.38.14-.56h0c.11-.44.24-.88.41-1.3h0c.05-.06.11-.12.08-.21h0s.04-.19.04-.19l-.03-.07c.12-.29.24-.58.44-.79h0c.01-.06.01-.14.09-.18h0s0,0,0,0c.16-.33.35-.65.59-.97h0c.13-.22.27-.41.53-.5.19-.06.28-.39.58-.46h0s.05-.03.07-.04h0C12.65,0,13.31-.14,13.94-.02c.63.11,1.18.45,1.59.88h0c.23.31.4.64.53.99.13.36.19.71.23,1.06.06.7-.03,1.37-.17,1.98-.3,1.32-.62,2.62-1.01,3.91-.15.52-.31,1.03-.48,1.54h0c0,.08-.01.15-.07.2h0s0,0,0,0c-.15.41-.34.88-.44,1.22-.16.6-.41,1.15-.64,1.72-.48,1.19-1.05,2.35-1.63,3.49-.19.36-.35.74-.5,1.11-.14.32-.27.38-.41.36-.29-.04-.51.05-.83.66-.17.34-.53.91-.75.5-.05-.1-.14.06-.21.16-.4.57-.51.24-.68.16Zm.74-12.8l-.05-.15c.02.06.04.12.06.19,0,.01,0-.02,0-.03Zm.13-2.05l-.03-.04v.07s.03-.03.03-.03Zm.56-1.89l-.06.13.08-.11-.02-.02Zm1.21-2.02c-.05.05-.11.09-.16.14.05-.03.1-.06.15-.09v-.04Zm3.49,9.22l.02-.02s0,0,0,0c0,0,0,.01-.01.02Z"/>
</svg>