<?xml version="1.0" encoding="UTF-8"?>
<svg id="Capa_1" data-name="Capa 1" xmlns="http://www.w3.org/2000/svg" viewBox="0 0 20 20">
  <defs>
    <style>
      .cls-1 {
        fill: #956852;
        stroke-width: 0px;
      }
    </style>
  </defs>
  <path class="cls-1" d="m8.76,17.95C3.34,18.49.49,12.43,1.06,9.04c.3-1.74,1.89-2.43,3.45-2.65,2.68-.37,5.39-.59,8.09-.1,1.51.27,2.96.66,3.53,2.35.17.52.7.45,1.07.64,2.16,1.15,2.49,3.62.49,4.93-1.91,1.25-4.12,1.99-6.03,3.32-.77.53-1.95.47-2.89.41Zm-1.44-9.44c2.43-.55,4.63.48,7.1,1.25-.82-1.3-2.03-1.46-3.02-1.6-1.33-.19-2.79-.54-4.08.35-1.41-.27-2.77-.25-3.99.65-.21.16-.57.33-.2.64.2.17.5.36.73.01.84-1.29,2.18-1.2,3.46-1.31Zm-5.68,1.3c-.09,2.54,1.61,5.91,3.55,6.59,2.93,1.03,5.8.84,8.34-1.17.36-.29.7-.53,1.15-.49.93.08,1.68-.37,2.44-.77.91-.48,1.34-1.25,1.17-2.27-.17-1.06-.9-1.57-1.88-1.96-1.21-.48-1.78.65-2.69.85-4.06.91-8.09,1.41-12.08-.78Zm.45-.46c1.55-1.59,3.31-1.67,5.01-1.85,2.43-.26,4.84-.29,7.04,1.04.24.15.49.62.82.13.24-.35.04-.66-.25-.87-.27-.2-.56-.41-.87-.51-3.43-1.11-6.87-.86-10.29.08-.73.2-1.36.66-1.46,1.99Zm2.52.59c1,.15,1.68.46,2.38.17.05-.02-.03-.7-.16-.75-.7-.26-1.38-.15-2.22.58Zm6.27-.73c.03,1.4.37,1.5,2.13.66-.73-.22-1.35-.42-2.13-.66Z"/>
  <path class="cls-1" d="m3.71,5.44c-.83-1.17,1.32-2.25.07-3.43,1.89,1.12.22,2.29-.07,3.43Z"/>
  <path class="cls-1" d="m1.99,5.56c-.66-1.24,1.62-1.88.49-3.19,1.05.84.98,1.2-.49,3.19Z"/>
  <path class="cls-1" d="m15.19,14.12c-.51.02-.82-.06-.78-.63.09-1.22,1.06-2.69,1.83-2.63.8.06,1.43.42,1.43,1.33,0,.97-1.33,1.95-2.48,1.93Zm.11-.67c1.16-.23,1.66-.61,1.72-1.38.02-.25-.19-.5-.44-.47-1.02.12-.61,1.11-1.28,1.86Z"/>
</svg>