<?xml version="1.0" encoding="UTF-8"?>
<svg id="Capa_1" data-name="Capa 1" xmlns="http://www.w3.org/2000/svg" viewBox="0 0 20 20">
  <defs>
    <style>
      .cls-1 {
        fill: #956852;
        stroke-width: 0px;
      }
    </style>
  </defs>
  <path class="cls-1" d="m11.97,19.67c-1.01-1.37-.89-3.18-1.85-4.62-.84,1.44-.89,3.13-1.74,4.49-.59-.19-.32-.55-.22-.84.37-1.1.67-2.25,1.17-3.29.55-1.15.16-2.17-.12-3.25-.16-.63-.62-.51-1.01-.55-1.24-.14-2.48-.25-3.7-.58-1.22-.33-1.06-1.21-1.09-2.13-.03-.93.61-1.02,1.23-1.2.25-.07.52-.1.75-.21.57-.28,1.53-.04,1.73-.6.22-.63-.67-.99-1.06-1.49-.57-.72-.22-1.17.51-1.49.71-.31,1.57.06,2.22-.53.16-.15.37.05.29.22-.26.52.85.88.1,1.46-.43.34-.77.81-1.11,1.26-.36.47-.25.77.38.86,1.66.24,1.85-.01,2.1-1.67.22-1.5.96-2.91.69-4.51-.09-.54.46-.64.92-.65.5-.01.75.24.66.72-.34,1.98,1.3,3.6.99,5.59-.11.69.66.55,1.06.67,1.65.47,2,1.08,1.54,2.73-.1.37-.3.61-.68.69-1.05.24-2.09.54-3.15.71-1.61.25-2.48,1.72-1.85,3.31.63,1.59,1.11,3.21,1.25,4.93Zm3.99-11.3c-.92-.21-1.66-1.24-2.49.22-.46.8-2.69.76-2.87.04-.31-1.3-1.15-.79-1.96-.85.02.41.68.71.2,1.04-.64.43-1.37.42-2.11.22-.73-.2-.34-.76-.29-1.27-.74.21-1.32.36-1.89.54-.15.04-.28.15-.43.23,1.73,1.64,9.79,1.58,11.84-.15Zm-6.18,2.86c1.82-.16,3.65-.44,5.44-.95.3-.09.83,0,.74-.5-.13-.72-.62-.2-.91-.14-3.42.7-6.84.85-10.28.15-.3-.06-.68-.49-.86.05-.19.57.39.58.72.68,1.67.49,3.41.51,5.16.71Zm2.68-6.45c1.36-.06.3-.8.14-1.2-.23-.56.21-1.69-.55-1.62-.98.09-.23,1.24-.52,1.84-.45.94.12.99.93.98Zm-6.2.09c.91.15,1.69.3,2.41-.27-.73.42-1.64-1.17-2.41.27Zm6.92,3.23c-.61-.09-1.18.09-1.75-.05-.17-.04-.34-.07-.39.15-.04.18.04.36.23.38.68.07,1.4.22,1.92-.48Z"/>
</svg>