<?xml version="1.0" encoding="UTF-8"?>
<svg id="Capa_1" data-name="Capa 1" xmlns="http://www.w3.org/2000/svg" viewBox="0 0 20 20">
  <defs>
    <style>
      .cls-1 {
        fill: #956852;
        stroke-width: 0px;
      }
    </style>
  </defs>
  <path class="cls-1" d="m4.15,6.56c1.1,0,2.19,0,3.29,0,.08,0,.09-.03.09-.09,0-.54,0-1.08,0-1.62,0-.75.5-1.33,1.24-1.44.81-.12,1.59.54,1.6,1.37,0,.56,0,1.12,0,1.67,0,.09.03.11.11.11.39,0,.79,0,1.18,0,.07,0,.09-.02.09-.09,0-.54,0-1.08,0-1.63,0-.74.49-1.31,1.22-1.43.76-.13,1.52.45,1.61,1.21.02.21.01.41.01.62,0,.4,0,.81,0,1.21,0,.08.02.11.11.11,1.47,0,2.94,0,4.41,0,.22,0,.38.14.39.34,0,.22-.14.39-.37.39-.34,0-.68,0-1.03,0-1.26,0-2.52,0-3.78,0-.58,0-1.15,0-1.73,0-.09,0-.12.02-.12.11,0,1.54,0,3.08,0,4.62,0,.08.03.11.1.13.92.27,1.83.2,2.7-.2.52-.24,1.06-.4,1.63-.46.72-.06,1.42.04,2.1.31.09.03.17.07.25.11.22.1.31.3.22.5-.09.19-.3.26-.52.16-.32-.14-.64-.25-.99-.31-.77-.13-1.52-.04-2.23.28-.45.2-.92.37-1.41.44-.91.13-1.79,0-2.62-.39-.57-.26-1.16-.41-1.78-.39-.57.01-1.11.16-1.62.39-.79.36-1.62.51-2.48.41-.51-.06-1-.21-1.46-.42-.65-.3-1.34-.43-2.05-.36-.43.04-.84.16-1.23.34-.08.03-.15.06-.24.05-.16-.02-.29-.14-.32-.29-.03-.17.05-.33.2-.4.38-.18.78-.31,1.2-.38.95-.17,1.87-.03,2.74.37.59.27,1.2.41,1.84.39.32-.01.64-.07.95-.16.06-.02.08-.04.08-.1,0-1.55,0-3.11,0-4.66,0-.07-.02-.09-.09-.09-1.29,0-2.57,0-3.86,0-.9,0-1.79,0-2.69,0-.23,0-.38-.15-.38-.37,0-.21.16-.36.38-.36.09,0,.17,0,.26,0,1,0,2,0,3.01,0Zm5.85,1.75c.55,0,1.1,0,1.65,0,.06,0,.09-.01.09-.08,0-.29,0-.57,0-.86,0-.07-.03-.09-.09-.09-1.1,0-2.2,0-3.3,0-.08,0-.09.03-.09.1,0,.27,0,.55,0,.82,0,.08.02.11.11.11.55,0,1.09,0,1.64,0Zm-.01,1.76c.55,0,1.11,0,1.66,0,.07,0,.09-.02.09-.09,0-.28,0-.56,0-.85,0-.06-.01-.09-.08-.09-1.11,0-2.21,0-3.32,0-.07,0-.09.02-.09.09,0,.28,0,.56,0,.85,0,.08.03.09.1.09.54,0,1.09,0,1.63,0Zm-.35-4.44c0-.26,0-.53,0-.79,0,0,0-.02,0-.03-.01-.39-.32-.69-.7-.68-.38,0-.68.31-.68.7,0,.55,0,1.1,0,1.64,0,.08.03.09.1.09.4,0,.8,0,1.2,0,.07,0,.09-.02.08-.09,0-.28,0-.56,0-.85Zm4.21,0h0c0-.28,0-.55,0-.83,0-.37-.32-.67-.69-.67-.37,0-.68.3-.68.68,0,.56,0,1.12,0,1.67,0,.06.02.08.08.08.41,0,.81,0,1.22,0,.06,0,.08-.02.08-.08,0-.29,0-.57,0-.86Zm-3.85,5.18c-.55,0-1.09,0-1.64,0-.09,0-.11.03-.11.11,0,.26,0,.53,0,.79,0,.12,0,.12.11.08,1.1-.41,2.19-.41,3.29,0,.07.03.09.02.09-.06,0-.28,0-.56,0-.84,0-.08-.03-.09-.1-.09-.55,0-1.1,0-1.65,0Z"/>
  <path class="cls-1" d="m19.5,15.79c0,.31-.27.48-.52.37-.3-.13-.61-.24-.93-.31-.8-.16-1.57-.07-2.3.26-.7.32-1.42.51-2.2.49-.64-.02-1.25-.16-1.84-.43-.51-.24-1.05-.38-1.61-.4-.62-.02-1.21.12-1.77.38-.68.32-1.39.47-2.15.45-.63-.02-1.22-.17-1.79-.43-.48-.22-.97-.36-1.5-.39-.64-.03-1.25.09-1.83.35-.06.03-.12.05-.18.05-.18,0-.33-.1-.38-.27-.04-.17.04-.34.2-.42.45-.21.92-.35,1.42-.42.9-.11,1.75.04,2.56.42,1.11.51,2.22.51,3.33,0,.66-.3,1.36-.47,2.09-.45.66.02,1.28.17,1.88.45.5.23,1.03.37,1.58.38.61.01,1.19-.11,1.74-.37.68-.32,1.4-.48,2.15-.46.64.02,1.25.18,1.82.45.14.06.21.18.22.29Z"/>
  <path class="cls-1" d="m19.5,14c0,.31-.27.48-.53.37-.29-.13-.58-.23-.89-.3-.85-.17-1.66-.06-2.44.3-.71.33-1.45.49-2.23.45-.6-.03-1.16-.18-1.7-.43-.61-.28-1.24-.43-1.92-.39-.51.03-.99.15-1.45.37-.73.34-1.49.5-2.29.45-.58-.04-1.14-.18-1.66-.43-.61-.28-1.24-.42-1.91-.39-.5.03-.98.15-1.44.36-.1.05-.2.06-.3.02-.14-.05-.23-.17-.24-.31,0-.16.06-.29.2-.36.41-.2.85-.33,1.3-.4.94-.14,1.84.02,2.7.41,1.1.5,2.21.49,3.31-.01,1.32-.6,2.64-.6,3.96,0,.53.24,1.08.38,1.66.38.58,0,1.14-.13,1.66-.37.64-.3,1.31-.46,2.02-.46.68,0,1.33.16,1.95.45.14.07.22.18.22.3Z"/>
</svg>