<?xml version="1.0" encoding="UTF-8"?>
<svg id="Capa_1" data-name="Capa 1" xmlns="http://www.w3.org/2000/svg" xmlns:xlink="http://www.w3.org/1999/xlink" viewBox="0 0 20 20">
  <defs>
    <style>
      .cls-1 {
        clip-path: url(#clippath);
      }

      .cls-2 {
        fill: none;
      }

      .cls-2, .cls-3 {
        stroke-width: 0px;
      }

      .cls-3 {
        fill: #956852;
      }
    </style>
    <clipPath id="clippath">
      <rect class="cls-2" x="3.47" y=".57" width="13.05" height="18.85"/>
    </clipPath>
  </defs>
  <g class="cls-1">
    <path class="cls-3" d="m11.07,6.12c-.62-.51-1.28-.6-1.85-.27-.27.15-.37.24-.02.48.71.51,1.26.26,1.88-.21m2.18,11.87c-.75-.37-1.5-.39-2.22-.06-.71.33-1.35.33-2.06,0-.72-.33-1.47-.31-2.22.05,1.64,1.27,4.83,1.28,6.5,0m-.1-12.52c-.03-.06-.05-.1-.07-.14-.71-1.05-1.75-1.61-3.08-1.61-1.34,0-2.37.57-3.08,1.62-.06.09-.12.18-.01.28.21.19,1.51.23,1.76.05.86-.64,1.8-.63,2.67.02.23.17,1.56.12,1.76-.08.04-.04.05-.11.06-.14m-8.15,10.92c.24.5.57.77.87,1.06.2.2.4.23.68.1.94-.42,1.89-.39,2.83.06.4.19.81.2,1.21,0,.93-.45,1.87-.48,2.83-.08.17.07.34.19.52.04.39-.31.79-.62,1.01-1.18-.76.19-1.36.01-1.97-.23-.67-.26-1.38-.23-2.03.09-.63.31-1.24.32-1.87,0-.61-.31-1.29-.35-1.9-.14-.68.23-1.33.5-2.16.27m9.14-.34c.74.02,1.48-.49,1.64-1.14.04-.16.18-.36.03-.49-.18-.16-.41-.01-.58.08-.72.38-1.4.33-2.13,0-.71-.32-1.46-.28-2.17.05-.64.3-1.24.31-1.87,0-.63-.3-1.34-.39-1.97-.12-.88.39-1.67.45-2.53,0-.39-.2-.48,0-.4.35.24,1.04,1.28,1.54,2.33,1.08.93-.41,1.85-.45,2.76,0,.5.24.96.25,1.46,0,.91-.45,1.84-.42,2.76,0,.21.1.42.2.66.19m-6.36-5.99c0,.97.04,1.95-.01,2.92-.03.58.08.95.81.92.15,0,.31.08.46.14.71.26.71.27.71-.47,0-1.82,0-3.64,0-5.45q0-1.12-1.13-1.56c-.09-.03-.18-.06-.26-.1-.42-.2-.61-.14-.59.36.03,1.08.01,2.16.01,3.25m4.45.04c0-.93,0-1.86,0-2.79,0-1.15,0-1.17-1.13-.62-.33.16-.86.19-.85.73,0,2.17,0,4.33,0,6.5,0,.3.1.39.42.26.32-.13.66-.29.99-.3.54,0,.59-.25.58-.65-.02-1.04,0-2.08,0-3.12m.51-.1c0,1.02,0,2.04,0,3.06,0,.96,1.02,1.56,1.99,1.17.3-.12.6-.26.91-.33.28-.07.37-.19.37-.45,0-2.28,0-4.55,0-6.83,0-.33-.14-.45-.48-.5-.77-.12-1.54-.12-2.31-.05-.36.03-.51.18-.5.54.02,1.13,0,2.25,0,3.38m-5.47.08c0-1.15-.01-2.3,0-3.45,0-.35-.13-.52-.49-.56-.79-.07-1.58-.09-2.38.05-.32.06-.42.2-.42.48,0,2.28,0,4.55,0,6.83,0,.19,0,.37.28.44.38.1.74.26,1.11.4.67.26,1.18-.15,1.71-.37.35-.15.16-.55.17-.84.02-1,0-1.99,0-2.99M9.68,1.01c-2.24.13-4.15,1.18-5.21,3.38-.6,1.24-.56,1.25.85,1.2.61-.02.97-.17,1.34-.68,1.49-2.06,4.74-2.27,6.38-.32.68.81,1.39,1.03,2.36,1.08.5.03.53-.08.43-.48-.57-2.35-3.12-4.18-6.15-4.17M3.48,9.98c0-1.13,0-2.26,0-3.38.03-3.4,2.93-6.04,6.6-6.02,3.55.02,6.43,2.72,6.44,6.05,0,2.21,0,4.42,0,6.64,0,3.44-2.85,6.14-6.47,6.16-3.65.03-6.55-2.67-6.57-6.13,0-1.11,0-2.21,0-3.32"/>
  </g>
</svg>