<?xml version="1.0" encoding="UTF-8"?>
<svg id="Capa_1" data-name="Capa 1" xmlns="http://www.w3.org/2000/svg" viewBox="0 0 20 24">
  <defs>
    <style>
      .cls-1 {
        fill: #956852;
        stroke-width: 0px;
      }
    </style>
  </defs>
  <path class="cls-1" d="M18.82,18.99c-.06.29-.04.51.19.69.2.15.49.08.67.3-.11.11-.23.05-.34.06-.05,0-.14-.07-.13.03.06.4-.16.16-.26.11-.17-.08-.35-.16-.49-.29-.26-.23-.34-.53-.19-.86-.39.38-.05.76-.02,1.16-.2-.27-.46-.52-.42-.87.06-.48-.15-.91-.14-1.38,0-.15-.13-.25-.27-.3-.31-.12-.63-.2-.97-.18-.79.04-1.56-.11-2.31-.35-.42-.14-.68-.42-.79-.84-.21-.82-.27-1.66-.43-2.49,0-.03-.02-.07-.05-.16-.43.5-.62,1.03-.55,1.64.11,1.01.49,1.92,1,2.8.2.34.44.4.77.26.32-.13.63-.27.95-.4.7-.29,1.42-.38,2.16-.18.2.05.33.15.35.38.02.28.11.56.11.85,0,.38.04.73.26,1.05.07.11.09.21-.02.32-.76.75-1.65,1.27-2.68,1.56-.07.02-.14,0-.25,0,.36-.18.75-.22,1.05-.47-.06-.13-.13-.06-.19-.04-2.29.87-4.68,1.39-7.06,1.96-1.31.31-2.61.62-3.96.62-.52,0-1.05-.08-1.44-.49-.44-.46-.3-1.04.3-1.24.49-.16,1-.17,1.52-.11.6.07,1.2.14,1.81.18.85.06,1.64-.18,2.41-.52,1.62-.72,3.04-1.75,4.46-2.8.14-.11.34-.16.45-.41-.32.08-.53.25-.74.41-1.02.74-2.02,1.51-3.14,2.11-.24.13-.42.12-.66.01-1.33-.6-2.5-1.46-3.73-2.24-.47-.3-.96-.57-1.49-.76-.13-.05-.25-.14-.42-.04,2.08.8,3.67,2.44,5.8,3.27-.7.4-1.37.72-2.1.77-1.18.08-2.38.02-3.52-.33-.84-.26-1.56-.75-2.19-1.36-.09-.09-.23-.18-.12-.33.39-.49.25-1.09.34-1.65.1-.6.17-.7.76-.77.82-.1,1.57.13,2.3.48.87.42.98.39,1.43-.46.41-.77.7-1.59.79-2.46.06-.59-.15-1.11-.56-1.61-.16.55-.17,1.06-.26,1.55-.07.37-.13.75-.22,1.12-.1.43-.37.7-.79.84-.75.25-1.52.38-2.31.35-.32-.02-.61.04-.91.15-.23.08-.34.23-.35.48,0,.45-.15.88-.13,1.34.01.27-.2.53-.41.8-.06-.27.11-.42.14-.61.04-.21.05-.4-.17-.67.24.8-.28,1.01-.74,1.25-.09.05-.28.18-.21-.11.03-.13-.06-.06-.1-.06-.11,0-.23.04-.39-.06.39-.25,1.1-.21.89-.96q-.49.26-.84-.19c-.04-.05-.13-.09-.06-.17.08-.1.15-.01.21.03.26.17.51.08.62-.22.06-.17.01-.3-.13-.4-.14-.09-.27-.08-.38.04-.04.04-.08.09-.12.13-.09.11-.19.31-.31.2-.11-.1-.06-.34.07-.47.47-.46.95-.91,1.61-1.09.39-.11.77-.23,1.16-.35.69-.21,1.31-.55,1.96-.85.17-.08.24-.2.28-.38.15-.79.21-1.6.28-2.4.09-1,.1-2.01.33-3.01.13-.57.47-.88,1.02-1.01.53-.13,1.04-.34,1.52-.6.64-.33.85-1.33.42-1.91-.06-.09-.13-.17-.18-.26-.24-.46-.43-.96-.73-1.39-.15-.21-.18-.45,0-.69.13-.17.02-.39,0-.58-.13-1.19.48-2.55,1.8-2.82.74-.15,1.58.18,2.04.88.41.63.59,1.32.46,2.07-.03.21-.02.39.09.61.16.34-.08.65-.27.9-.1.13-.19.26-.25.41-.1.28-.23.55-.4.79-.54.8-.29,1.69.59,2.11.43.21.87.38,1.33.49.68.17,1.01.62,1.11,1.56.11,1.15.19,2.3.3,3.44.04.44.13.87.18,1.3.03.3.2.45.46.57.91.44,1.83.85,2.82,1.08.7.16,1.22.62,1.72,1.1.04.04.1.1.09.15,0,.12.13.28,0,.36-.14.09-.22-.09-.3-.18-.11-.12-.19-.3-.39-.26-.13.02-.26.1-.28.24-.04.19.05.35.21.46.11.07.21.16.35.04.08-.07.18-.23.29-.1.1.13-.09.19-.15.27-.28.37-.29.36-.75.05ZM1.67,18.38c.04-.41-.13-.74,0-1.08-.03,0-.07,0-.1-.01-.11.32-.22.64-.35,1,.2-.08.21-.23.27-.34.12.1.03.25.17.44ZM18.25,18.33c.15-.11.03-.31.17-.39.13-.07.13-.06.13-.11-.03-.21-.1-.39-.29-.53.13.34-.08.67,0,1.03Z"/>
  <path class="cls-1" d="M10.78,23.08c1.03-.28,2-.53,2.97-.81.94-.27,1.88-.2,2.82-.07.34.05.65.24.7.62.05.38-.16.66-.47.85-.62.37-1.31.35-1.98.3-1.36-.11-2.66-.51-4.04-.89Z"/>
</svg>