<?xml version="1.0" encoding="UTF-8"?>
<svg id="Capa_1" data-name="Capa 1" xmlns="http://www.w3.org/2000/svg" viewBox="0 0 20 20">
  <defs>
    <style>
      .cls-1 {
        fill: #956852;
        stroke-width: 0px;
      }
    </style>
  </defs>
  <path class="cls-1" d="m15.73,4.24c.96-.44,1.28-.32,1.7.64.09.2.22.36.38.51.77.71.61,1.45-.37,1.85-.3.12-.61.12-1.01.17.54.53.94,1.04.62,1.79-.07.16.14.24.24.35.73.84.67,1.69-.21,2.38-.27.21-.57.38-.87.54-.28.15-.58.26-1.01.46.7.13,1.27.23,1.83.35.71.16,1.39.42,1.99.85.99.71,1.04,1.88.08,2.65-.82.67-1.85.88-2.84,1.1-4.18.93-8.36.92-12.52-.06-.92-.21-1.79-.55-2.59-1.06-.54-.34-.98-.79-.92-1.49.06-.72.47-1.21,1.15-1.49.16-.06.31-.14.47-.2.51-.19,1.03-.26.5-1.06-.37-.55-.1-1.24.37-1.76.73-.8,1.67-1.25,2.63-1.68.09-.04.22-.04.27-.21-.58-.27-1.18-.52-1.75-.81-.94-.49-1.05-1.26-.28-2.01.73-.72,1.69-.95,2.65-1.15.01-.12-.06-.16-.13-.21-1.1-.8-1.06-1.86.16-2.51,1.2-.63,2.5-.71,3.81-.5,1.39.22,2.77.53,4.08,1.08.1.04.2.08.3.1.97.15,1.15.35,1.28,1.4Zm-5.36,13.96c1.46.04,2.91-.08,4.34-.34,1.22-.22,2.45-.39,3.58-.95.59-.29,1.02-.73,1.02-1.43,0-.67-.46-1.03-.98-1.31-.84-.46-1.76-.65-2.69-.8-.57-.09-1.13-.23-1.71-.03-1.3.44-2.62.77-3.97,1.02-2.1.4-4.2.48-6.15-.51-.76-.39-1.3-.29-1.93.05-.26.14-.52.3-.75.48-.64.48-.7,1.1-.14,1.67.53.54,1.18.91,1.91,1.14,2.43.78,4.94.96,7.47,1.01Zm-2.39-3.89c1.66-.01,3.63-.58,5.6-1.15,1.09-.31,2.18-.64,3.1-1.33.77-.58.82-1.47.13-2.08-.32-.28-.92-.22-1.15.13-.46.67-.98.71-1.46.05-.26-.36-.44-.29-.71-.05-.37.33-.78.43-1.23.16-.14-.08-.28-.08-.43-.06-1.74.17-3.41-.16-5.04-.71-.27-.09-.52-.14-.81-.04-1.07.36-2.02.93-2.82,1.73-.81.81-.68,1.67.3,2.27,1.26.77,2.64,1.08,4.52,1.08Zm3.85-4.65c-.17-.34-.39-.44-.65-.51-.46-.12-.75-.35-.49-.87.06-.12.1-.19-.08-.29-.77-.43-.84-.7-.41-1.44.38-.65.32-.78-.39-.8-.82-.03-1.6-.23-2.39-.45-1.34-.38-2.49.07-3.5.89-.69.57-.57,1.22.25,1.6.93.44,1.87.84,2.83,1.19,1.53.56,3.12.85,4.83.68Zm.34-4.76c-.29-.59-.36-1.04,0-1.49.38-.46.93-.11,1.44-.34-.13-.08-.19-.14-.26-.16-1.13-.39-2.28-.73-3.45-.91-1.12-.18-2.26-.14-3.33.34-.47.21-.86.53-.88,1.08-.02.52.4.78.79,1,1.08.62,2.26.87,3.48.98.13.01.27.03.35-.1.41-.74,1.03-.72,1.86-.4Zm2.56,1.79c.87.37,1.71.51,2.59.28.61-.16.86-.8.43-1.16-.37-.3-.58-.66-.75-1.08-.2-.49-.61-.54-.99-.26-.63.46-1.03,1.12-1.47,1.81.56.06.95-.3,1.53-.18-.42.39-.91.34-1.33.58Zm-.51-.58c.48-.62.91-1.07,1.07-1.68.1-.39.06-.78-.24-1.07-.28-.27-.63-.22-.96-.09-.4.15-.79.27-1.24.22-.49-.05-.69.27-.57.69.25.83.87,1.4,1.63,2.04-.04-.56-.06-.94-.08-1.32,0-.13-.03-.29.14-.31.17-.02.17.15.18.27.03.36.04.72.07,1.25Zm-.76.21c-.64-.59-1.22-1.08-1.97-1.3-.54-.16-.88.11-.78.64.08.42-.02.75-.24,1.08-.16.24-.28.51-.08.77.19.25.48.25.77.19.77-.16,1.46-.52,2.22-.94-.59-.16-1.13,0-1.7-.31.63-.22,1.16,0,1.8-.13Zm.73,1.07c-.08.78-.09,1.46.16,2.11.13.33.47.81.77.5.42-.45.81-.71,1.41-.76.24-.02.33-.35.27-.64-.08-.36-.27-.64-.58-.8-.53-.28-1.08-.53-1.71-.83.11.6.6.91.68,1.5-.52-.23-.6-.71-1-1.07Zm-1.6.74c.28-.45.76-.55.92-1.05-.77.34-1.46.65-2.15.97-.22.1-.42.25-.39.53.03.26.26.27.43.3.42.09.62.42.88.71.42.46.83.43,1.12-.11.33-.61.48-1.28.36-2.03-.38.22-.58.64-1.17.67Z"/>
</svg>