<?xml version="1.0" encoding="UTF-8"?>
<svg id="Capa_1" data-name="Capa 1" xmlns="http://www.w3.org/2000/svg" viewBox="0 0 20 20">
  <defs>
    <style>
      .cls-1 {
        fill: #956852;
        stroke-width: 0px;
      }
    </style>
  </defs>
  <path class="cls-1" d="m10.15,3.52c1.54,0,3.02.28,4.46.84,1.3.5,2.47,1.22,3.53,2.11.42.35.8.75,1.18,1.14.48.49.47,1.26,0,1.77-.46.49-1.25.54-1.77.09-.39-.34-.72-.73-1.12-1.06-1.01-.84-2.14-1.48-3.4-1.87-1.85-.57-3.71-.59-5.57-.07-1.11.31-2.13.82-3.07,1.51-.67.49-1.23,1.07-1.81,1.65-.36.36-.78.49-1.27.38-.84-.19-1.39-1.32-.62-2.14,1.11-1.19,2.34-2.23,3.8-2.98,1.75-.9,3.68-1.37,5.66-1.36Z"/>
  <path class="cls-1" d="m10.43,8.22c1.04.02,2.03.27,2.97.71,1.05.5,1.93,1.23,2.68,2.11.45.53.43,1.23-.01,1.79-.38.48-1.1.63-1.68.35-.36-.18-.61-.49-.89-.76-1.15-1.11-2.52-1.56-4.09-1.29-1.06.18-1.92.74-2.66,1.51-.27.28-.52.59-.88.78-.55.28-1.28.16-1.68-.3-.44-.51-.49-1.22-.12-1.75.26-.37.61-.66.93-.98.43-.42.91-.8,1.43-1.11.85-.51,1.77-.83,2.75-.98.42-.06.83-.08,1.25-.07Z"/>
  <path class="cls-1" d="m12.3,15.78c.03,1.15-.86,2.25-2.18,2.29-1.17.04-2.27-.85-2.32-2.18-.05-1.18.84-2.28,2.21-2.33,1.14-.04,2.25.85,2.29,2.21Z"/>
</svg>