<?xml version="1.0" encoding="UTF-8"?>
<svg id="Capa_1" data-name="Capa 1" xmlns="http://www.w3.org/2000/svg" viewBox="0 0 20 20">
  <defs>
    <style>
      .cls-1 {
        fill: #956852;
        stroke-width: 0px;
      }
    </style>
  </defs>
  <path class="cls-1" d="m10.31,1.07c.12.03.23.02.35.03.61.06,1.2.2,1.76.43.9.36,1.69.9,2.35,1.61.84.9,1.38,1.95,1.62,3.15.13.62.15,1.24.1,1.87-.1,1.11-.45,2.14-1.1,3.05-.14.2-.3.4-.46.59-.21.25-.38.53-.57.8-.97,1.41-1.94,2.82-2.9,4.23-.47.68-.94,1.36-1.4,2.05-.04.06-.06.07-.1,0-.76-1.1-1.52-2.2-2.27-3.3-.84-1.22-1.68-2.44-2.52-3.65-.16-.23-.36-.43-.52-.67-.48-.71-.83-1.48-1.02-2.32-.13-.54-.17-1.08-.15-1.63.06-1.4.52-2.65,1.39-3.75.86-1.08,1.95-1.83,3.28-2.23.49-.15.98-.24,1.49-.26.03,0,.06,0,.09-.01.19,0,.39,0,.58,0Zm-.29,15.77s.02-.03.02-.03c.98-1.43,1.96-2.86,2.94-4.29.41-.59.82-1.19,1.25-1.77.59-.79.92-1.69.99-2.69.04-.55,0-1.1-.12-1.64-.29-1.19-.91-2.17-1.87-2.93-.83-.66-1.79-1.02-2.84-1.1-.56-.04-1.12,0-1.66.15-1.13.3-2.07.89-2.79,1.8-.86,1.08-1.25,2.31-1.15,3.69.03.49.15.96.33,1.42.23.6.56,1.14.96,1.65.28.35.51.73.76,1.09.85,1.24,1.7,2.47,2.54,3.71.21.31.42.62.64.94Z"/>
  <path class="cls-1" d="m9.98,10.43c-1.65-.01-2.99-1.31-2.99-3,0-1.66,1.32-2.98,2.98-2.98,1.67,0,3.02,1.33,3.03,2.98,0,1.64-1.36,2.99-3.02,3Zm0-4.78c-.96-.01-1.84.79-1.79,1.89.04.9.81,1.72,1.85,1.69.95-.03,1.82-.83,1.77-1.89-.05-.92-.85-1.71-1.83-1.69Z"/>
</svg>