<?xml version="1.0" encoding="UTF-8"?>
<svg id="Capa_1" data-name="Capa 1" xmlns="http://www.w3.org/2000/svg" viewBox="0 0 16 16">
  <defs>
    <style>
      .cls-1 {
        fill: #956852;
        stroke-width: 0px;
      }
    </style>
  </defs>
  <path class="cls-1" d="M13.4,8.32c0-1.19.06-2.38-.06-3.56C13.07,2.22,10.81.09,8.29,0,5.14-.11,2.62,2.32,2.6,5.48c0,1.64,0,3.28,0,4.92,0,1.71,0,3.43,0,5.14,0,.35.08.46.45.46,3.31-.01,6.62-.02,9.92,0,.37,0,.45-.12.44-.46-.01-2.41,0-4.81,0-7.22ZM12.31,2.66c.58.99.84,2.04.81,3.14-.87-.83-1.75-1.65-2.62-2.48-.2-.19-.37-.4-.57-.58-.17-.16-.26-.31-.17-.55.09-.25.29-.17.45-.17.3-.01.61.04.9-.01.58-.09.91.17,1.19.65ZM11.42,6.17c-.44.34-.9.65-1.36.97-.44.3-.89.6-1.34,1.02.11-1.44.97-2.36,2.4-2.62.25-.05.64-.23.74-.02.12.25-.23.49-.45.65ZM11.88,6.11c-.11,1.72-1.66,2.96-3.25,2.68.81-1.22,2.25-1.61,3.25-2.68ZM11.57,1.74c-.6,0-1.06,0-1.53,0-.13,0-.26,0-.28-.15-.07-.43-.31-.77-.63-1.17.96.2,1.69.64,2.44,1.32ZM9.1.86c.56.6.53,1.56-.04,2.12-.16.16-.24.16-.37-.04-.22-.34-.46-.66-.73-1.04-.25.34-.48.63-.67.95-.14.23-.24.27-.42.05-.55-.63-.49-1.56.15-2.15.61-.56,1.52-.52,2.1.11ZM7.43,3.6c.36.14.73.14,1.1.02.1-.03.2-.09.27.04.23.44.49.87.25,1.39-.22.47-.57.71-.99.74-.91,0-1.5-.82-1.21-1.59.06-.15.14-.3.2-.45.08-.18.17-.24.38-.16ZM7.47,3.05c.15-.21.29-.41.48-.67.15.2.27.35.37.51.08.13.29.25.18.41-.09.13-.29.13-.46.12-.15,0-.29-.03-.44-.06-.2-.04-.25-.14-.12-.31ZM6.96.37c-.41.4-.64.77-.73,1.22-.03.13-.12.15-.24.15-.48,0-.95,0-1.54,0,.73-.72,1.51-1.11,2.51-1.37ZM4.02,2.22c.07-.08.13-.18.24-.18.6,0,1.2-.03,1.8,0,.23.01.27.39.06.61-.71.73-1.43,1.46-2.15,2.18-.34.34-.69.66-1.09,1.04-.03-1.39.3-2.59,1.14-3.65ZM6.02,15.72c-.95,0-1.89,0-2.84,0-.29,0-.3-.16-.3-.38,0-1.58,0-3.16,0-4.74.66,1.31,1.77,1.84,3.16,1.9.2,0,.25.11.25.29,0,.89,0,1.77,0,2.66,0,.19-.07.27-.27.27ZM2.93,8.9c1.64-.26,3.23,1.05,3.25,2.66-.97-1.03-2.41-1.44-3.25-2.66ZM6.14,12.12c-.14.28-.6.06-.9-.01-1.32-.29-2.01-1.08-2.26-2.64.82.81,1.79,1.26,2.6,1.92.25.2.69.47.56.73ZM6.95,15.72c-.32,0-.4-.11-.4-.42.02-1.08.02-2.16,0-3.25-.03-2.1-1.19-3.33-3.28-3.49-.31-.02-.43-.11-.4-.43.02-.31,0-.63,0-.95q0-.98.87-1.68c.05.71.15,1.36.47,1.96.59,1.12,1.61,1.53,2.78,1.64.31.03.41.11.4.42-.01,1.92-.02,3.85,0,5.77,0,.36-.14.41-.45.42ZM6.52,7.87c.28.21.54.43.74.72.07.1.17.24-.09.27-1.46.17-2.96-1.14-3.03-2.71.76.71,1.62,1.16,2.38,1.73ZM4.17,5.55c.13-.28.62-.04.94.03,1.32.31,2.05,1.15,2.21,2.59-.81-.77-1.75-1.22-2.55-1.87-.26-.21-.72-.48-.59-.76ZM8.35,12.44c0,.96,0,1.93,0,2.89,0,.24-.02.4-.33.39-.29,0-.36-.12-.36-.38,0-1.96,0-3.91,0-5.87,0-.25.08-.34.34-.34.29,0,.35.11.35.37-.01.98,0,1.96,0,2.93ZM8,8.87c-.35,0-.33-.2-.35-.43-.12-1.93-1.22-3.06-3.14-3.26-.11-.01-.23-.02-.45-.04.78-.8,1.5-1.53,2.22-2.26.05-.05.09-.1.18-.04.3.19.42.6.26.93-.54,1.16.03,2.26,1.18,2.31.92.04,1.97-1.01,1.3-2.19-.21-.37-.14-.55.12-.83.22-.23.3-.21.51,0,.67.67,1.36,1.31,2.04,1.96-.03.04-.06.09-.09.13-.18.02-.36.05-.53.07-1.81.3-2.78,1.37-2.9,3.2-.02.25,0,.46-.37.46ZM12.82,15.72c-.93,0-1.86,0-2.79,0-.21,0-.3-.08-.29-.29,0-.87.01-1.74,0-2.61,0-.33.21-.3.42-.32,1.03-.08,1.94-.41,2.57-1.29.13-.18.22-.37.4-.66,0,1.71,0,3.3,0,4.88,0,.21-.09.29-.3.29ZM9.92,11.93c.19-.28.45-.48.71-.68.78-.59,1.66-1.02,2.39-1.75-.2,1.97-1.53,2.63-2.97,2.73-.3.02-.25-.13-.13-.29ZM9.86,11.55c-.03-1.56,1.51-2.83,3.25-2.67-.86,1.24-2.28,1.65-3.25,2.67ZM13.08,8.38c-.19.4-.75.19-1.14.29-1.56.42-2.44,1.6-2.47,3.44-.02,1.05-.01,2.1,0,3.16,0,.31-.05.46-.41.45-.33,0-.44-.08-.44-.43.02-1.92,0-3.85.01-5.77,0-.19-.04-.38.27-.4,1.99-.12,3.19-1.14,3.39-3.54.54.43.97.82.85,1.55-.07.41.11.9-.05,1.24Z"/>
</svg>