<?xml version="1.0" encoding="UTF-8"?>
<svg id="Capa_1" data-name="Capa 1" xmlns="http://www.w3.org/2000/svg" viewBox="0 0 40 40">
  <defs>
    <style>
      .cls-1 {
        fill: #175754;
        stroke-width: 0px;
      }
    </style>
  </defs>
  <path class="cls-1" d="M39.5,18.4v3.2c-.09.66-.15,1.34-.29,1.99-1.72,7.78-6.38,12.86-13.99,15.24-1.18.37-2.4.52-3.62.67h-3.2c-.64-.09-1.29-.15-1.92-.28-7.83-1.69-12.92-6.37-15.32-14-.36-1.15-.51-2.35-.67-3.54,0-1.12,0-2.23,0-3.35.09-.61.17-1.23.28-1.84C2.07,9.16,7.67,3.07,14.85,1.14c1.14-.31,2.3-.48,3.47-.64h3.35c.76.12,1.54.18,2.29.36,7.62,1.83,12.59,6.5,14.89,13.99.35,1.16.5,2.35.65,3.55ZM32.02,19.55c.03-.61-.05-1.34-.19-2.06-1.2-6.18-7.02-10.26-13.24-9.28-7.84,1.23-12.18,9.9-8.46,16.9.16.29.18.55.09.86-.47,1.67-.92,3.35-1.38,5.03-.13.47-.11.49.37.37,1.74-.46,3.49-.91,5.22-1.37.29-.08.53-.04.8.09,2.24,1.11,4.6,1.48,7.06,1.07,5.84-.97,9.79-6.07,9.72-11.6Z"/>
  <path class="cls-1" d="M20.54,29.42c-1.91,0-3.56-.45-5.08-1.35-.27-.16-.5-.17-.79-.09-.89.25-1.79.48-2.68.71-.6.16-.61.14-.44-.47.24-.86.46-1.71.71-2.57.09-.3.06-.55-.12-.82-1.15-1.83-1.66-3.85-1.44-6,.38-3.6,2.2-6.28,5.45-7.91,5.88-2.94,13.03.87,13.91,7.37.73,5.39-2.96,10.26-8.34,11.03-.44.06-.89.04-1.18.08ZM23.47,25.23c.11,0,.23,0,.34,0,1.29-.07,2.28-.97,2.47-2.21.05-.31.02-.58-.32-.73-.72-.34-1.44-.69-2.16-1.03-.31-.15-.55-.09-.76.2-.25.34-.53.65-.79.98-.18.22-.4.29-.68.18-1.73-.68-3.05-1.84-4-3.43-.15-.25-.13-.47.06-.7.19-.23.37-.49.56-.72.23-.29.27-.58.11-.92-.27-.59-.5-1.19-.75-1.79-.31-.75-1.31-.98-1.92-.43-.51.46-.86,1.02-1.01,1.71-.21.98,0,1.9.48,2.75,1.21,2.12,2.79,3.9,4.96,5.08,1.06.58,2.18,1.03,3.41,1.08Z"/>
</svg>